<svg width="631" height="329" viewBox="0 0 631 329" fill="none" xmlns="http://www.w3.org/2000/svg">
<rect width="631" height="329" fill="#F8F9FA"/>
<g clip-path="url(#clip0_0_1)">
<mask id="mask0_0_1" style="mask-type:luminance" maskUnits="userSpaceOnUse" x="0" y="0" width="631" height="329">
<path d="M630.487 0H0V328.166H630.487V0Z" fill="white"/>
</mask>
<g mask="url(#mask0_0_1)">
<path d="M322.922 219.444H18.895V198.852" stroke="#999999" stroke-width="3.005" stroke-linecap="round" stroke-linejoin="round" stroke-dasharray="0.19 9.02"/>
<mask id="mask1_0_1" style="mask-type:luminance" maskUnits="userSpaceOnUse" x="0" y="0" width="631" height="329">
<path d="M630.487 0H0V328.166H630.487V0Z" fill="white"/>
</mask>
<g mask="url(#mask1_0_1)">
<path d="M19.051 168.894C21.418 168.894 22.475 167.87 22.475 166.494V166.27C22.475 164.67 21.355 163.582 19.467 163.582C18.547 163.605 17.6478 163.861 16.8533 164.325C16.0587 164.79 15.3947 165.448 14.923 166.238L11.915 163.422C12.7797 162.198 13.9403 161.212 15.2886 160.558C16.637 159.903 18.1291 159.6 19.626 159.678C24.426 159.678 27.526 162.014 27.526 165.598C27.5543 166.811 27.1369 167.992 26.3528 168.918C25.5686 169.844 24.4721 170.45 23.271 170.622V170.814C24.5786 170.962 25.7825 171.597 26.6423 172.594C27.5022 173.59 27.9548 174.874 27.91 176.189C27.91 180.189 24.486 182.781 19.431 182.781C14.887 182.781 12.615 180.765 11.175 178.494L14.727 175.742C15.687 177.565 17.027 178.877 19.427 178.877C21.603 178.877 22.882 177.693 22.882 175.837V175.645C22.882 173.822 21.41 172.894 18.982 172.894H16.971V168.894H19.051Z" fill="#19A39A"/>
<path d="M46.187 179.165L49.387 175.933C50.0765 176.743 50.9353 177.392 51.9029 177.835C52.8704 178.277 53.9232 178.502 54.987 178.493C57.355 178.493 58.507 177.436 58.507 175.805C58.507 174.589 57.995 173.693 55.916 173.405L53.708 173.117C49.002 172.509 46.86 170.205 46.86 166.462C46.86 162.462 49.995 159.678 55.244 159.678C56.6848 159.608 58.1235 159.852 59.4606 160.393C60.7976 160.935 62.0009 161.76 62.987 162.813L59.755 166.078C59.1749 165.376 58.4388 164.82 57.6054 164.453C56.7719 164.086 55.8643 163.92 54.955 163.966C52.779 163.966 51.723 164.798 51.723 166.142C51.723 167.678 52.523 168.254 54.379 168.542L56.587 168.895C61.162 169.631 63.37 171.679 63.37 175.518C63.37 179.806 60.235 182.781 54.67 182.781C53.0781 182.837 51.4933 182.542 50.028 181.918C48.5626 181.293 47.2527 180.354 46.191 179.166" fill="#19A39A"/>
<path d="M72.875 182.4C69.611 182.4 67.883 180.7 67.883 177.5V169.277H65.516V165.6H66.7C67.98 165.6 68.364 164.961 68.364 163.808V161.056H72.62V165.6H75.947V169.28H72.619V178.719H75.69V182.399L72.875 182.4Z" fill="#19A39A"/>
<path d="M78.058 173.982C78.058 168.671 80.874 165.215 85.93 165.215C91.497 165.215 93.737 169.246 93.737 173.79V175.2H82.954V175.456C82.954 177.664 84.138 179.071 86.666 179.071C87.4606 179.064 88.2437 178.88 88.9578 178.531C89.6719 178.183 90.299 177.678 90.793 177.056L93.161 180C92.2557 180.941 91.1585 181.677 89.9438 182.157C88.7291 182.638 87.4254 182.851 86.121 182.783C80.97 182.783 78.058 179.359 78.058 173.983M82.958 172.159V172.415H88.846V172.127C88.846 170.079 87.917 168.703 86.029 168.703C84.141 168.703 82.958 170.079 82.958 172.159Z" fill="#19A39A"/>
<path d="M97.1 165.6H101.835V168.415H101.995C102.291 167.46 102.893 166.629 103.709 166.05C104.524 165.472 105.508 165.178 106.507 165.215C110.763 165.215 112.971 168.286 112.971 173.982C112.971 179.678 110.763 182.782 106.507 182.782C105.509 182.812 104.529 182.516 103.715 181.938C102.9 181.361 102.297 180.534 101.995 179.582H101.835V188.8H97.1V165.6ZM108.043 175.455V172.543C108.043 170.432 106.731 169.056 104.943 169.056C103.155 169.056 101.843 169.983 101.843 171.519V176.478C101.843 178.015 103.155 178.942 104.943 178.942C106.731 178.942 108.043 177.566 108.043 175.455Z" fill="#19A39A"/>
<path d="M124.361 182.4V160.063H134.92C139.079 160.063 141.703 162.974 141.703 167.198C141.703 171.422 139.079 174.334 134.92 174.334H129.22V182.4H124.361ZM129.224 170.113H134.344C134.649 170.153 134.959 170.124 135.252 170.029C135.545 169.934 135.813 169.775 136.037 169.564C136.26 169.353 136.434 169.094 136.545 168.807C136.657 168.52 136.703 168.212 136.68 167.905V166.497C136.702 166.19 136.656 165.882 136.545 165.595C136.434 165.308 136.26 165.05 136.036 164.839C135.813 164.627 135.545 164.469 135.252 164.374C134.959 164.279 134.649 164.25 134.344 164.29H129.224V170.113Z" fill="#19A39A"/>
<path d="M144.776 182.4V165.6H149.511V169.248H149.672C149.811 168.218 150.325 167.276 151.117 166.602C151.909 165.929 152.921 165.572 153.96 165.6H154.791V170.016H153.607C150.855 170.016 149.507 170.624 149.507 172.576V182.4H144.776Z" fill="#19A39A"/>
<path d="M156.489 173.981C156.489 168.573 159.432 165.214 164.36 165.214C169.288 165.214 172.231 168.573 172.231 173.981C172.231 179.389 169.287 182.781 164.36 182.781C159.433 182.781 156.489 179.39 156.489 173.981ZM167.303 175.709V172.285C167.303 170.174 166.215 168.957 164.36 168.957C162.505 168.957 161.415 170.174 161.415 172.285V175.709C161.415 177.821 162.504 179.037 164.36 179.037C166.216 179.037 167.303 177.821 167.303 175.709Z" fill="#19A39A"/>
<path d="M174.537 173.982C174.537 168.606 177.32 165.214 182.376 165.214C185.767 165.214 188.103 166.846 189.096 169.598L185.256 171.262C185.139 170.593 184.782 169.99 184.252 169.567C183.721 169.143 183.054 168.928 182.376 168.962C180.456 168.962 179.464 170.338 179.464 172.45V175.586C179.464 177.697 180.456 179.042 182.376 179.042C184.264 179.042 185.032 177.889 185.512 176.542L189.191 178.142C188.071 181.342 185.672 182.782 182.376 182.782C177.32 182.782 174.537 179.358 174.537 173.982Z" fill="#19A39A"/>
<path d="M190.92 173.982C190.92 168.671 193.736 165.215 198.792 165.215C204.359 165.215 206.599 169.246 206.599 173.79V175.2H195.816V175.456C195.816 177.664 197 179.071 199.528 179.071C200.323 179.064 201.106 178.88 201.82 178.531C202.534 178.183 203.161 177.678 203.655 177.056L206.023 180C205.118 180.941 204.021 181.677 202.806 182.157C201.592 182.638 200.288 182.851 198.984 182.783C193.832 182.783 190.92 179.359 190.92 173.983M195.82 172.159V172.415H201.7V172.127C201.7 170.079 200.771 168.703 198.883 168.703C196.995 168.703 195.812 170.079 195.812 172.159" fill="#19A39A"/>
<path d="M208.585 179.773L211.369 176.958C211.909 177.618 212.587 178.152 213.355 178.522C214.123 178.893 214.963 179.09 215.816 179.101C217.672 179.101 218.316 178.494 218.316 177.501C218.316 176.668 217.803 176.252 216.616 176.092L214.792 175.869C210.984 175.388 209.129 173.725 209.129 170.685C209.129 167.453 211.656 165.213 215.656 165.213C219.176 165.213 220.808 166.173 222.504 167.837L219.784 170.621C218.769 169.561 217.379 168.941 215.912 168.893C214.312 168.893 213.673 169.469 213.673 170.301C213.673 171.201 214.057 171.677 215.433 171.869L217.32 172.125C220.968 172.605 222.856 174.269 222.856 177.18C222.856 180.413 219.976 182.78 215.656 182.78C214.326 182.848 212.999 182.613 211.774 182.092C210.548 181.57 209.458 180.778 208.585 179.773Z" fill="#19A39A"/>
<path d="M224.489 179.773L227.273 176.958C227.813 177.618 228.491 178.152 229.259 178.522C230.027 178.893 230.867 179.09 231.72 179.101C233.576 179.101 234.22 178.494 234.22 177.501C234.22 176.668 233.707 176.252 232.52 176.092L230.696 175.869C226.888 175.388 225.033 173.725 225.033 170.685C225.033 167.453 227.56 165.213 231.56 165.213C235.08 165.213 236.712 166.173 238.408 167.837L235.688 170.621C234.673 169.561 233.283 168.941 231.816 168.893C230.216 168.893 229.577 169.469 229.577 170.301C229.577 171.201 229.961 171.677 231.337 171.869L233.224 172.125C236.872 172.605 238.76 174.269 238.76 177.18C238.76 180.413 235.88 182.78 231.56 182.78C230.23 182.848 228.903 182.613 227.678 182.092C226.452 181.57 225.362 180.778 224.489 179.773Z" fill="#19A39A"/>
<path d="M19.829 190.233C30.5378 190.233 39.219 181.552 39.219 170.843C39.219 160.134 30.5378 151.453 19.829 151.453C9.12019 151.453 0.438995 160.134 0.438995 170.843C0.438995 181.552 9.12019 190.233 19.829 190.233Z" stroke="#8FD7D4" stroke-width="0.878" stroke-linecap="round" stroke-linejoin="round"/>
<path d="M53.762 136.805V148.068H50.722V136.805H46.941V134.105H57.541V136.805H53.762Z" fill="#999999"/>
<path d="M59.46 133.265H62.421V139.346H62.541C62.7294 138.73 63.1203 138.195 63.6504 137.828C64.1805 137.462 64.8188 137.285 65.462 137.326C67.603 137.326 68.742 138.846 68.742 141.487V148.068H65.781V141.726C65.781 140.386 65.401 139.726 64.321 139.726C63.361 139.726 62.421 140.226 62.421 141.266V148.066H59.46V133.265Z" fill="#999999"/>
<path d="M70.719 142.807C70.719 139.485 72.48 137.325 75.641 137.325C79.122 137.325 80.522 139.846 80.522 142.687V143.566H73.781V143.727C73.7486 144.037 73.7868 144.35 73.8929 144.643C73.9989 144.936 74.17 145.202 74.3933 145.419C74.6165 145.637 74.8862 145.801 75.182 145.899C75.4777 145.997 75.7919 146.028 76.101 145.987C76.5978 145.983 77.0875 145.868 77.534 145.65C77.9804 145.432 78.3724 145.116 78.681 144.727L80.162 146.567C79.596 147.155 78.9103 147.615 78.1512 147.916C77.3921 148.216 76.5773 148.35 75.762 148.308C72.542 148.308 70.72 146.167 70.72 142.808M73.782 141.667V141.827H77.463V141.647C77.463 140.367 76.883 139.507 75.702 139.507C75.4283 139.505 75.1572 139.561 74.9071 139.672C74.6569 139.783 74.4334 139.946 74.2515 140.151C74.0697 140.356 73.9337 140.597 73.8527 140.858C73.7717 141.12 73.7476 141.395 73.782 141.667Z" fill="#999999"/>
<path d="M95.862 142.346H90.541V148.068H87.5V134.105H90.541V139.666H95.862V134.105H98.9V148.068H95.86L95.862 142.346Z" fill="#999999"/>
<path d="M101.159 142.807C101.159 139.426 103 137.325 106.081 137.325C109.162 137.325 111.002 139.425 111.002 142.807C111.002 146.189 109.161 148.307 106.081 148.307C103.001 148.307 101.159 146.186 101.159 142.807ZM107.921 143.887V141.746C107.921 140.426 107.241 139.666 106.081 139.666C104.921 139.666 104.24 140.426 104.24 141.746V143.887C104.24 145.207 104.92 145.967 106.081 145.967C107.242 145.967 107.921 145.207 107.921 143.887Z" fill="#999999"/>
<path d="M113.1 148.068V137.568H116.061V139.348H116.181C116.356 138.743 116.729 138.215 117.241 137.849C117.752 137.482 118.372 137.299 119.001 137.328C119.659 137.296 120.309 137.488 120.843 137.873C121.378 138.258 121.765 138.814 121.943 139.448H122C122.241 138.802 122.68 138.249 123.255 137.868C123.83 137.487 124.511 137.298 125.2 137.328C127.221 137.328 128.342 138.848 128.342 141.489V148.07H125.38V141.728C125.38 140.369 124.921 139.728 123.941 139.728C123.724 139.705 123.504 139.728 123.296 139.795C123.088 139.862 122.896 139.971 122.732 140.116C122.569 140.26 122.437 140.438 122.345 140.636C122.253 140.834 122.204 141.05 122.2 141.268V148.068H119.24V141.726C119.24 140.367 118.76 139.726 117.799 139.726C117.582 139.705 117.363 139.729 117.156 139.796C116.948 139.863 116.757 139.973 116.594 140.117C116.43 140.262 116.299 140.438 116.207 140.636C116.115 140.834 116.064 141.048 116.059 141.266V148.066L113.1 148.068Z" fill="#999999"/>
<path d="M130.319 142.807C130.319 139.485 132.08 137.325 135.241 137.325C138.722 137.325 140.122 139.846 140.122 142.687V143.566H133.381V143.727C133.349 144.037 133.387 144.35 133.493 144.643C133.599 144.936 133.77 145.202 133.993 145.419C134.217 145.637 134.486 145.801 134.782 145.899C135.078 145.997 135.392 146.028 135.701 145.987C136.198 145.983 136.688 145.868 137.134 145.65C137.58 145.432 137.972 145.116 138.281 144.727L139.762 146.567C139.196 147.155 138.51 147.615 137.751 147.916C136.992 148.216 136.177 148.35 135.362 148.308C132.142 148.308 130.32 146.167 130.32 142.808M133.382 141.667V141.827H137.063V141.647C137.063 140.367 136.483 139.507 135.302 139.507C135.028 139.505 134.757 139.561 134.507 139.672C134.257 139.783 134.033 139.946 133.852 140.151C133.67 140.356 133.534 140.597 133.453 140.858C133.372 141.12 133.348 141.395 133.382 141.667Z" fill="#999999"/>
<path d="M144.921 148.068L140.421 134.105H143.501L145.582 140.805L146.682 145.186H146.742L147.803 140.805L149.883 134.105H152.863L148.322 148.068H144.921Z" fill="#999999"/>
<path d="M153.16 142.807C153.16 139.485 154.921 137.325 158.082 137.325C161.563 137.325 162.963 139.846 162.963 142.687V143.566H156.222V143.727C156.19 144.037 156.228 144.35 156.334 144.643C156.44 144.936 156.611 145.202 156.834 145.419C157.058 145.637 157.327 145.801 157.623 145.899C157.919 145.997 158.233 146.028 158.542 145.987C159.039 145.983 159.528 145.868 159.975 145.65C160.421 145.432 160.813 145.116 161.122 144.727L162.603 146.567C162.037 147.155 161.351 147.615 160.592 147.916C159.833 148.216 159.018 148.35 158.203 148.308C154.984 148.308 153.162 146.167 153.162 142.808M156.224 141.667V141.827H159.9V141.647C159.9 140.367 159.32 139.507 158.139 139.507C157.865 139.505 157.594 139.561 157.344 139.672C157.094 139.783 156.87 139.946 156.689 140.151C156.507 140.356 156.371 140.597 156.29 140.858C156.209 141.12 156.185 141.395 156.219 141.667" fill="#999999"/>
<path d="M164.2 146.427L165.94 144.667C166.277 145.08 166.701 145.414 167.182 145.646C167.662 145.877 168.188 146.001 168.721 146.007C169.881 146.007 170.281 145.627 170.281 145.007C170.281 144.487 169.961 144.227 169.221 144.127L168.081 143.987C165.7 143.687 164.54 142.647 164.54 140.746C164.54 138.726 166.12 137.325 168.621 137.325C169.412 137.259 170.208 137.372 170.949 137.656C171.69 137.94 172.357 138.388 172.901 138.966L171.201 140.706C170.566 140.044 169.698 139.656 168.781 139.626C167.781 139.626 167.381 139.986 167.381 140.506C167.381 141.066 167.62 141.366 168.481 141.487L169.662 141.647C171.942 141.947 173.123 142.987 173.123 144.807C173.123 146.827 171.323 148.307 168.623 148.307C167.792 148.35 166.961 148.202 166.195 147.877C165.429 147.551 164.748 147.055 164.202 146.426" fill="#999999"/>
<path d="M178.662 148.068C176.621 148.068 175.541 147.007 175.541 145.007V139.866H174.06V137.566H174.801C175.601 137.566 175.841 137.166 175.841 136.446V134.725H178.5V137.566H180.58V139.866H178.5V145.766H180.42V148.066L178.662 148.068Z" fill="#999999"/>
<path d="M181.9 142.807C181.9 139.426 183.741 137.325 186.822 137.325C189.903 137.325 191.743 139.425 191.743 142.807C191.743 146.189 189.902 148.307 186.822 148.307C183.742 148.307 181.9 146.186 181.9 142.807ZM188.662 143.887V141.746C188.662 140.426 187.982 139.666 186.822 139.666C185.662 139.666 184.981 140.426 184.981 141.746V143.887C184.981 145.207 185.662 145.967 186.822 145.967C187.982 145.967 188.662 145.207 188.662 143.887Z" fill="#999999"/>
<path d="M193.841 148.068V137.568H196.8V139.848H196.9C196.987 139.204 197.308 138.616 197.803 138.195C198.297 137.774 198.93 137.551 199.579 137.568H200.1V140.329H199.359C197.639 140.329 196.799 140.709 196.799 141.929V148.071L193.841 148.068Z" fill="#999999"/>
<path d="M201.061 146.427L202.801 144.667C203.138 145.08 203.562 145.414 204.043 145.646C204.523 145.877 205.049 146.001 205.582 146.007C206.742 146.007 207.142 145.627 207.142 145.007C207.142 144.487 206.822 144.227 206.082 144.127L204.942 143.987C202.561 143.687 201.401 142.647 201.401 140.746C201.401 138.726 202.981 137.325 205.482 137.325C206.273 137.259 207.069 137.372 207.81 137.656C208.551 137.94 209.218 138.388 209.762 138.966L208.062 140.706C207.427 140.044 206.558 139.656 205.641 139.626C204.641 139.626 204.241 139.986 204.241 140.506C204.241 141.066 204.48 141.366 205.341 141.487L206.522 141.647C208.802 141.947 209.983 142.987 209.983 144.807C209.983 146.827 208.183 148.307 205.483 148.307C204.652 148.35 203.821 148.202 203.055 147.877C202.29 147.551 201.608 147.055 201.062 146.426" fill="#999999"/>
<path d="M210.97 135.532C210.979 135.068 211.124 134.617 211.389 134.236C211.653 133.855 212.024 133.56 212.455 133.389C212.886 133.217 213.358 133.177 213.811 133.273C214.265 133.369 214.681 133.597 215.005 133.928C215.33 134.259 215.55 134.678 215.637 135.134C215.725 135.589 215.676 136.061 215.496 136.488C215.317 136.916 215.015 137.281 214.629 137.538C214.242 137.795 213.789 137.932 213.325 137.932C213.011 137.934 212.7 137.874 212.41 137.753C212.121 137.633 211.858 137.456 211.638 137.232C211.419 137.008 211.246 136.742 211.131 136.45C211.017 136.158 210.962 135.846 210.97 135.532ZM215.05 135.719V135.346C215.035 134.899 214.846 134.475 214.525 134.164C214.203 133.853 213.773 133.679 213.325 133.679C212.877 133.679 212.447 133.853 212.125 134.164C211.804 134.475 211.615 134.899 211.6 135.346V135.719C211.615 136.166 211.804 136.59 212.125 136.901C212.447 137.212 212.877 137.386 213.325 137.386C213.773 137.386 214.203 137.212 214.525 136.901C214.846 136.59 215.035 136.166 215.05 135.719ZM213.057 136.745H212.311V134.308H213.5C214.153 134.308 214.433 134.658 214.433 135.125C214.446 135.282 214.412 135.439 214.335 135.576C214.258 135.713 214.142 135.824 214.001 135.894L214.501 136.745H213.701L213.328 136.034H213.06L213.057 136.745ZM213.348 135.486C213.558 135.486 213.675 135.404 213.675 135.217V135.136C213.675 134.95 213.558 134.868 213.348 134.868H213.057V135.486H213.348Z" fill="#999999"/>
<path d="M619.672 252.523H350.089V327.676H619.672V252.523Z" fill="#FFDD05"/>
<path d="M473.294 288.715V276.148H481.63V278.578H476.03V281.153H480.8V283.566H476.03V288.715H473.294Z" fill="#197D7B"/>
<path d="M489.946 288.715C489.493 288.716 489.055 288.547 488.722 288.24C488.388 287.933 488.182 287.511 488.146 287.059H488.038C487.878 287.652 487.51 288.168 487.001 288.512C486.491 288.856 485.875 289.005 485.265 288.931C484.884 288.976 484.498 288.936 484.134 288.816C483.77 288.696 483.437 288.498 483.157 288.236C482.878 287.973 482.659 287.653 482.516 287.297C482.373 286.941 482.31 286.559 482.33 286.176C482.33 284.176 483.879 283.224 486.381 283.224H487.876V282.624C487.876 281.706 487.426 281.13 486.31 281.13C485.903 281.122 485.501 281.221 485.143 281.417C484.786 281.613 484.487 281.899 484.274 282.246L482.69 280.846C483.105 280.23 483.679 279.737 484.351 279.42C485.023 279.103 485.768 278.974 486.507 279.046C489.172 279.046 490.54 280.271 490.54 282.503V286.645H491.423V288.715H489.946ZM487.876 285.852V284.736H486.576C485.55 284.736 485.01 285.115 485.01 285.798V286.069C485.01 286.752 485.46 287.077 486.252 287.077C487.135 287.077 487.873 286.716 487.873 285.852" fill="#197D7B"/>
<path d="M492.428 287.239L493.994 285.655C494.298 286.026 494.679 286.326 495.111 286.535C495.542 286.743 496.015 286.854 496.494 286.861C497.539 286.861 497.894 286.519 497.894 285.961C497.894 285.493 497.606 285.261 496.94 285.169L495.913 285.043C493.771 284.772 492.727 283.836 492.727 282.126C492.727 280.307 494.149 279.047 496.399 279.047C497.111 278.988 497.827 279.089 498.495 279.345C499.162 279.6 499.763 280.003 500.253 280.523L498.723 282.09C498.151 281.494 497.369 281.144 496.544 281.117C495.644 281.117 495.283 281.441 495.283 281.91C495.283 282.41 495.499 282.683 496.274 282.792L497.336 282.936C499.389 283.206 500.451 284.142 500.451 285.781C500.451 287.599 498.83 288.931 496.399 288.931C495.651 288.969 494.904 288.837 494.214 288.544C493.525 288.251 492.911 287.804 492.42 287.239" fill="#197D7B"/>
<path d="M505.443 288.715C505.067 288.767 504.684 288.731 504.323 288.612C503.962 288.493 503.634 288.292 503.363 288.026C503.091 287.76 502.885 287.436 502.758 287.078C502.632 286.72 502.589 286.337 502.633 285.96V281.333H501.3V279.262H501.966C502.687 279.262 502.903 278.902 502.903 278.254V276.7H505.3V279.257H507.174V281.328H505.3V286.64H507.029V288.71L505.443 288.715Z" fill="#197D7B"/>
<path d="M472.808 301.648C472.808 297.399 474.987 295.058 478.371 295.058C479.368 294.981 480.363 295.226 481.209 295.758C482.055 296.29 482.708 297.08 483.071 298.011L480.712 299.236C480.598 298.712 480.298 298.246 479.868 297.925C479.438 297.604 478.906 297.449 478.371 297.489C476.771 297.489 475.706 298.57 475.706 300.55V302.567C475.706 304.547 476.769 305.627 478.371 305.627C478.935 305.632 479.485 305.451 479.937 305.113C480.388 304.775 480.717 304.298 480.871 303.755L483.104 305.055C482.716 305.98 482.054 306.764 481.207 307.301C480.361 307.839 479.37 308.104 478.368 308.062C474.984 308.062 472.805 305.902 472.805 301.652" fill="#197D7B"/>
<path d="M487.514 307.842C487.159 307.897 486.796 307.868 486.453 307.757C486.111 307.647 485.799 307.459 485.543 307.207C485.286 306.956 485.091 306.648 484.974 306.308C484.857 305.968 484.821 305.605 484.868 305.249V294.518H487.533V305.772H488.721V307.842H487.514Z" fill="#197D7B"/>
<path d="M489.727 303.107C489.727 300.064 491.383 298.174 494.156 298.174C496.929 298.174 498.585 300.064 498.585 303.107C498.585 306.15 496.929 308.059 494.156 308.059C491.383 308.059 489.727 306.15 489.727 303.107ZM495.813 304.08V302.153C495.813 300.965 495.201 300.28 494.156 300.28C493.111 300.28 492.5 300.965 492.5 302.153V304.08C492.5 305.267 493.112 305.952 494.156 305.952C495.2 305.952 495.813 305.267 495.813 304.08Z" fill="#197D7B"/>
<path d="M499.7 306.366L501.266 304.782C501.57 305.153 501.951 305.453 502.383 305.662C502.814 305.87 503.287 305.981 503.766 305.988C504.811 305.988 505.166 305.646 505.166 305.088C505.166 304.62 504.878 304.388 504.212 304.296L503.185 304.17C501.043 303.899 499.999 302.963 499.999 301.253C499.999 299.434 501.421 298.174 503.671 298.174C504.383 298.115 505.099 298.216 505.767 298.472C506.434 298.727 507.035 299.13 507.525 299.65L506 301.217C505.429 300.621 504.647 300.271 503.821 300.244C502.921 300.244 502.56 300.568 502.56 301.037C502.56 301.537 502.776 301.81 503.551 301.919L504.613 302.063C506.666 302.333 507.728 303.269 507.728 304.908C507.728 306.726 506.107 308.058 503.676 308.058C502.928 308.096 502.181 307.964 501.491 307.671C500.802 307.378 500.188 306.931 499.697 306.366" fill="#197D7B"/>
<path d="M509.33 296.067V295.667C509.33 294.912 509.798 294.353 510.879 294.353C511.96 294.353 512.427 294.912 512.427 295.667V296.067C512.427 296.823 511.959 297.381 510.879 297.381C509.799 297.381 509.33 296.823 509.33 296.067ZM509.546 298.389H512.211V307.842H509.546V298.389Z" fill="#197D7B"/>
<path d="M514.693 307.842V298.389H517.358V299.989H517.466C517.636 299.434 517.987 298.953 518.464 298.623C518.941 298.294 519.515 298.134 520.094 298.171C522.021 298.171 523.047 299.539 523.047 301.916V307.84H520.382V302.132C520.382 300.926 520.041 300.332 519.068 300.332C518.205 300.332 517.358 300.782 517.358 301.718V307.84L514.693 307.842Z" fill="#197D7B"/>
<path d="M529.058 311.66C525.781 311.66 524.575 310.832 524.575 309.46C524.57 309.225 524.612 308.992 524.698 308.773C524.784 308.555 524.914 308.356 525.078 308.188C525.243 308.02 525.439 307.887 525.656 307.797C525.872 307.706 526.105 307.659 526.34 307.66V307.46C525.947 307.403 525.589 307.202 525.336 306.896C525.083 306.589 524.953 306.2 524.971 305.803C524.971 304.813 525.853 304.303 526.735 304.129V304.056C526.211 303.833 525.768 303.454 525.465 302.972C525.163 302.489 525.015 301.925 525.043 301.356C525.043 299.447 526.375 298.169 529.094 298.169C529.633 298.159 530.171 298.219 530.694 298.348V297.989C530.667 297.796 530.685 297.599 530.747 297.414C530.809 297.229 530.913 297.061 531.051 296.923C531.189 296.785 531.357 296.681 531.542 296.619C531.727 296.557 531.924 296.539 532.117 296.566H533.611V298.547H531.523V298.655C532.033 298.891 532.46 299.274 532.748 299.756C533.037 300.237 533.175 300.794 533.143 301.355C533.143 303.245 531.829 304.488 529.092 304.488C528.528 304.492 527.965 304.425 527.418 304.288C527.29 304.368 527.185 304.48 527.112 304.612C527.04 304.744 527.003 304.893 527.004 305.044C527.004 305.494 527.328 305.764 528.137 305.764H530.875C533.175 305.764 534.17 306.772 534.17 308.519C534.17 310.519 532.909 311.652 529.056 311.652M530.209 308.033H526.97C526.749 308.259 526.626 308.563 526.627 308.879C526.627 309.563 527.168 309.887 528.608 309.887H529.688C531.129 309.887 531.669 309.563 531.669 308.879C531.669 308.339 531.269 308.033 530.211 308.033M530.66 301.443V301.226C530.66 300.398 530.139 299.926 529.094 299.926C528.049 299.926 527.527 300.394 527.527 301.226V301.443C527.527 302.271 528.05 302.743 529.094 302.743C530.138 302.743 530.66 302.275 530.66 301.443Z" fill="#197D7B"/>
<path d="M431.334 320.163C442.043 320.163 450.724 311.482 450.724 300.773C450.724 290.064 442.043 281.383 431.334 281.383C420.625 281.383 411.944 290.064 411.944 300.773C411.944 311.482 420.625 320.163 431.334 320.163Z" stroke="#19A39A" stroke-width="0.878" stroke-linecap="round" stroke-linejoin="round"/>
<path d="M428.914 297.966H445.3V308.488H425.808V301.151" stroke="#197D7B" stroke-width="0.827" stroke-linecap="round" stroke-linejoin="round"/>
<path d="M427.316 302.243V305.031C427.82 305.031 428.303 305.231 428.66 305.587C429.016 305.944 429.216 306.427 429.216 306.931H441.894C441.894 306.427 442.094 305.944 442.451 305.587C442.807 305.231 443.29 305.031 443.794 305.031V301.424C443.29 301.424 442.807 301.224 442.451 300.867C442.094 300.511 441.894 300.028 441.894 299.524H431.837" stroke="#197D7B" stroke-width="0.827" stroke-linecap="round" stroke-linejoin="round"/>
<path d="M434.159 301.16C434.62 300.849 435.172 300.702 435.727 300.741C436.282 300.78 436.808 301.003 437.221 301.376C437.634 301.748 437.911 302.248 438.007 302.796C438.104 303.343 438.014 303.908 437.753 304.399C437.491 304.89 437.073 305.279 436.565 305.505C436.057 305.731 435.488 305.781 434.948 305.646C434.409 305.512 433.929 305.2 433.587 304.762C433.245 304.323 433.059 303.783 433.059 303.227" stroke="#197D7B" stroke-width="0.827" stroke-linecap="round" stroke-linejoin="round"/>
<path d="M439.775 303.227H440.936" stroke="#197D7B" stroke-width="0.827" stroke-linecap="round" stroke-linejoin="round"/>
<path d="M419.923 294.168H429.806L433.606 297.968" stroke="#197D7B" stroke-width="0.827" stroke-linecap="round" stroke-linejoin="round"/>
<path d="M427.585 296.833L432.608 301.856C432.081 302.369 431.375 302.655 430.641 302.655C429.906 302.655 429.2 302.369 428.673 301.856C426.784 299.966 426.417 299.6 426.417 299.6C426.209 299.865 425.943 300.08 425.64 300.228C425.337 300.375 425.004 300.452 424.667 300.452C424.33 300.452 423.997 300.375 423.694 300.228C423.391 300.08 423.125 299.865 422.917 299.6" stroke="#197D7B" stroke-width="0.827" stroke-linecap="round" stroke-linejoin="round"/>
<path d="M419.923 302.7H421.7C421.7 302.7 421.833 304.821 423.821 304.821H425.808" stroke="#197D7B" stroke-width="0.827" stroke-linecap="round" stroke-linejoin="round"/>
<path d="M417.369 293.058H419.923V303.758H417.369" stroke="#197D7B" stroke-width="0.827" stroke-linecap="round" stroke-linejoin="round"/>
<g style="mix-blend-mode:screen" opacity="0.7">
<mask id="mask2_0_1" style="mask-type:luminance" maskUnits="userSpaceOnUse" x="350" y="252" width="270" height="27">
<path d="M619.672 252.523H350.089V278.708H619.672V252.523Z" fill="white"/>
</mask>
<g mask="url(#mask2_0_1)">
<path d="M619.672 252.523H461.672L460.411 253.364L431.447 272.7L402.484 253.368L401.224 252.527H350.089V257.527H399.708L431.447 278.712L463.186 257.527H619.672V252.523Z" fill="white"/>
</g>
</g>
<path d="M619.672 177.444H350.089V252.6H399.631L431.364 273.789L462.564 252.6H619.672V177.444Z" fill="#19A39A"/>
<path d="M472.808 207.352C472.808 203.086 475.008 200.852 478.335 200.852C481.662 200.852 483.863 203.086 483.863 207.352C483.863 211.618 481.663 213.852 478.335 213.852C475.007 213.852 472.808 211.62 472.808 207.352ZM480.964 208.289V206.417C480.964 204.417 479.974 203.283 478.335 203.283C476.696 203.283 475.706 204.418 475.706 206.417V208.289C475.706 210.289 476.696 211.422 478.335 211.422C479.974 211.422 480.964 210.288 480.964 208.289Z" fill="white"/>
<path d="M491.583 212.051H491.493C491.321 212.607 490.966 213.088 490.485 213.415C490.004 213.742 489.426 213.896 488.846 213.851C486.92 213.851 485.894 212.5 485.894 210.124V204.182H488.558V209.89C488.558 211.042 488.936 211.69 489.908 211.69C490.108 211.713 490.312 211.696 490.505 211.639C490.699 211.583 490.879 211.488 491.036 211.36C491.192 211.232 491.321 211.074 491.415 210.896C491.509 210.717 491.566 210.521 491.583 210.32V204.181H494.248V213.634H491.583V212.051Z" fill="white"/>
<path d="M496.728 213.636V204.183H499.393V206.236H499.483C499.561 205.656 499.851 205.126 500.296 204.747C500.742 204.368 501.311 204.167 501.896 204.183H502.364V206.668H501.7C500.151 206.668 499.4 207.01 499.4 208.109V213.636H496.728Z" fill="white"/>
<path d="M508.393 201.068H514.493C514.93 201.028 515.371 201.083 515.785 201.23C516.199 201.376 516.577 201.611 516.891 201.917C517.206 202.223 517.451 202.594 517.609 203.004C517.767 203.414 517.834 203.853 517.806 204.291C517.806 206.218 516.744 206.937 515.466 206.991V207.099C515.85 207.092 516.231 207.164 516.586 207.312C516.941 207.459 517.261 207.679 517.526 207.956C517.792 208.234 517.997 208.563 518.129 208.924C518.261 209.285 518.316 209.669 518.292 210.052C518.319 210.501 518.256 210.951 518.107 211.375C517.958 211.8 517.726 212.19 517.425 212.524C517.123 212.858 516.758 213.128 516.35 213.319C515.943 213.509 515.501 213.617 515.052 213.635H508.39L508.393 201.068ZM511.129 206.218H513.848C514.003 206.232 514.159 206.212 514.305 206.159C514.451 206.106 514.584 206.021 514.694 205.911C514.804 205.801 514.888 205.668 514.941 205.522C514.994 205.376 515.014 205.22 515 205.065V204.525C515.014 204.37 514.994 204.214 514.941 204.068C514.888 203.922 514.804 203.789 514.694 203.679C514.584 203.569 514.451 203.485 514.305 203.432C514.159 203.379 514.003 203.359 513.848 203.373H511.129V206.218ZM511.129 211.331H514.28C514.435 211.348 514.591 211.33 514.738 211.279C514.885 211.229 515.019 211.146 515.131 211.038C515.243 210.93 515.329 210.798 515.384 210.652C515.44 210.507 515.462 210.351 515.45 210.196V209.585C515.462 209.43 515.44 209.274 515.384 209.129C515.329 208.983 515.243 208.851 515.131 208.743C515.019 208.635 514.885 208.552 514.738 208.502C514.591 208.451 514.435 208.433 514.28 208.45H511.129V211.331Z" fill="white"/>
<path d="M519.66 208.9C519.66 205.911 521.244 203.967 524.089 203.967C527.223 203.967 528.482 206.235 528.482 208.792V209.585H522.415V209.728C522.386 210.007 522.42 210.289 522.515 210.553C522.61 210.817 522.764 211.056 522.965 211.252C523.166 211.448 523.409 211.596 523.675 211.685C523.942 211.773 524.225 211.8 524.503 211.764C524.95 211.76 525.391 211.656 525.793 211.46C526.195 211.263 526.548 210.979 526.826 210.629L528.158 212.285C527.649 212.815 527.032 213.23 526.348 213.5C525.665 213.77 524.931 213.89 524.197 213.852C521.297 213.852 519.66 211.925 519.66 208.9ZM522.415 207.874V208.018H525.728V207.856C525.728 206.704 525.205 205.93 524.144 205.93C523.898 205.928 523.654 205.979 523.428 206.079C523.203 206.178 523.002 206.325 522.838 206.51C522.674 206.694 522.552 206.911 522.479 207.146C522.406 207.381 522.384 207.63 522.415 207.874Z" fill="white"/>
<path d="M529.6 212.16L531.166 210.576C531.47 210.947 531.851 211.247 532.283 211.456C532.714 211.664 533.187 211.775 533.666 211.782C534.711 211.782 535.071 211.44 535.071 210.882C535.071 210.414 534.783 210.182 534.117 210.09L533.09 209.964C530.948 209.693 529.904 208.757 529.904 207.047C529.904 205.228 531.326 203.968 533.576 203.968C534.288 203.909 535.004 204.01 535.672 204.266C536.339 204.521 536.94 204.924 537.43 205.444L535.9 207.011C535.329 206.415 534.546 206.065 533.721 206.038C532.821 206.038 532.46 206.362 532.46 206.831C532.46 207.331 532.676 207.604 533.451 207.713L534.513 207.857C536.566 208.127 537.628 209.063 537.628 210.702C537.628 212.52 536.007 213.852 533.576 213.852C532.828 213.89 532.081 213.758 531.391 213.465C530.702 213.172 530.088 212.725 529.597 212.16" fill="white"/>
<path d="M542.612 213.636C542.236 213.688 541.853 213.652 541.492 213.533C541.131 213.414 540.803 213.213 540.532 212.947C540.26 212.681 540.054 212.357 539.927 211.999C539.801 211.641 539.758 211.258 539.802 210.881V206.254H538.47V204.183H539.136C539.857 204.183 540.073 203.823 540.073 203.175V201.626H542.467V204.183H544.341V206.254H542.467V211.566H544.2V213.636H542.612Z" fill="white"/>
<path d="M472.808 226.569C472.808 222.32 474.987 219.979 478.371 219.979C479.368 219.902 480.363 220.147 481.209 220.679C482.055 221.211 482.708 222.001 483.071 222.932L480.712 224.157C480.598 223.633 480.298 223.167 479.868 222.846C479.438 222.525 478.906 222.37 478.371 222.41C476.771 222.41 475.706 223.491 475.706 225.471V227.488C475.706 229.468 476.769 230.548 478.371 230.548C478.935 230.553 479.485 230.372 479.937 230.034C480.388 229.696 480.717 229.219 480.871 228.676L483.104 229.976C482.716 230.901 482.054 231.685 481.207 232.222C480.361 232.76 479.37 233.025 478.368 232.983C474.984 232.983 472.805 230.823 472.805 226.573" fill="white"/>
<path d="M491.853 232.763C491.4 232.764 490.962 232.595 490.629 232.288C490.295 231.981 490.089 231.559 490.053 231.107H489.945C489.785 231.7 489.417 232.216 488.908 232.56C488.398 232.904 487.782 233.053 487.172 232.979C486.791 233.024 486.405 232.984 486.041 232.864C485.677 232.744 485.344 232.546 485.064 232.284C484.785 232.021 484.566 231.701 484.423 231.345C484.28 230.989 484.217 230.607 484.237 230.224C484.237 228.224 485.785 227.272 488.288 227.272H489.783V226.672C489.783 225.754 489.333 225.178 488.217 225.178C487.81 225.17 487.408 225.269 487.05 225.465C486.693 225.661 486.394 225.947 486.181 226.294L484.597 224.894C485.012 224.278 485.586 223.785 486.258 223.468C486.93 223.151 487.675 223.022 488.414 223.094C491.079 223.094 492.447 224.319 492.447 226.551V230.693H493.33V232.763H491.853ZM489.783 229.9V228.784H488.483C487.457 228.784 486.917 229.163 486.917 229.846V230.117C486.917 230.8 487.367 231.125 488.159 231.125C489.042 231.125 489.78 230.764 489.78 229.9" fill="white"/>
<path d="M494.335 231.287L495.9 229.7C496.204 230.071 496.585 230.371 497.017 230.58C497.448 230.788 497.921 230.899 498.4 230.906C499.445 230.906 499.8 230.564 499.8 230.006C499.8 229.538 499.512 229.306 498.846 229.214L497.819 229.088C495.677 228.817 494.633 227.881 494.633 226.171C494.633 224.352 496.055 223.092 498.305 223.092C499.017 223.033 499.733 223.134 500.401 223.39C501.068 223.646 501.669 224.048 502.159 224.568L500.628 226.135C500.057 225.539 499.275 225.189 498.45 225.162C497.55 225.162 497.189 225.486 497.189 225.955C497.189 226.455 497.405 226.728 498.18 226.837L499.242 226.981C501.295 227.251 502.356 228.187 502.356 229.826C502.356 231.644 500.736 232.976 498.305 232.976C497.557 233.014 496.81 232.882 496.12 232.589C495.431 232.296 494.817 231.849 494.326 231.284" fill="white"/>
<path d="M504.182 219.439H506.847V224.913H506.955C507.124 224.358 507.476 223.877 507.953 223.547C508.43 223.217 509.004 223.057 509.583 223.094C511.51 223.094 512.536 224.462 512.536 226.839V232.763H509.871V227.055C509.871 225.849 509.53 225.255 508.557 225.255C507.694 225.255 506.847 225.706 506.847 226.641V232.763H504.182V219.439Z" fill="white"/>
<path d="M518.816 226.478C518.816 222.212 521.016 219.978 524.343 219.978C527.67 219.978 529.871 222.212 529.871 226.478C529.871 230.744 527.671 232.978 524.343 232.978C521.015 232.978 518.816 230.746 518.816 226.478ZM526.972 227.415V225.543C526.972 223.543 525.982 222.409 524.343 222.409C522.704 222.409 521.714 223.544 521.714 225.543V227.415C521.714 229.415 522.704 230.548 524.343 230.548C525.982 230.548 526.972 229.414 526.972 227.415Z" fill="white"/>
<path d="M532.477 225.381H531.144V223.31H532.477V222.193C532.433 221.814 532.477 221.431 532.605 221.072C532.732 220.713 532.941 220.388 533.214 220.122C533.487 219.856 533.817 219.656 534.179 219.538C534.541 219.419 534.926 219.386 535.303 219.439H537.032V221.51H535.141V223.31H537.032V225.381H535.141V232.763H532.477V225.381Z" fill="white"/>
<path d="M539.048 225.381H537.715V223.31H539.048V222.193C539.004 221.814 539.048 221.431 539.176 221.072C539.303 220.713 539.512 220.388 539.785 220.122C540.058 219.856 540.388 219.656 540.75 219.538C541.112 219.419 541.497 219.386 541.874 219.439H543.6V221.51H541.709V223.31H543.6V225.381H541.709V232.763H539.045L539.048 225.381Z" fill="white"/>
<path d="M544.411 228.027C544.411 225.038 545.995 223.094 548.84 223.094C551.973 223.094 553.233 225.362 553.233 227.919V228.712H547.166V228.855C547.137 229.134 547.171 229.416 547.266 229.68C547.361 229.944 547.515 230.183 547.716 230.379C547.917 230.575 548.16 230.723 548.426 230.812C548.693 230.9 548.976 230.927 549.254 230.891C549.701 230.887 550.142 230.783 550.544 230.587C550.946 230.39 551.299 230.106 551.577 229.756L552.909 231.412C552.4 231.942 551.783 232.357 551.099 232.627C550.416 232.897 549.682 233.017 548.948 232.979C546.048 232.979 544.411 231.052 544.411 228.027ZM547.166 227V227.144H550.479V226.982C550.479 225.83 549.957 225.056 548.895 225.056C548.649 225.054 548.405 225.105 548.179 225.205C547.954 225.304 547.753 225.451 547.589 225.636C547.425 225.82 547.303 226.037 547.23 226.272C547.157 226.507 547.135 226.756 547.166 227Z" fill="white"/>
<path d="M555.121 232.763V223.31H557.786V225.363H557.876C557.954 224.783 558.244 224.253 558.689 223.874C559.135 223.495 559.704 223.294 560.289 223.31H560.757V225.795H560.091C558.542 225.795 557.791 226.137 557.791 227.236V232.763H555.121Z" fill="white"/>
<path d="M431.334 245.084C442.043 245.084 450.724 236.403 450.724 225.694C450.724 214.985 442.043 206.304 431.334 206.304C420.625 206.304 411.944 214.985 411.944 225.694C411.944 236.403 420.625 245.084 431.334 245.084Z" stroke="#8FD7D4" stroke-width="0.878" stroke-linecap="round" stroke-linejoin="round"/>
<g style="mix-blend-mode:screen" opacity="0.6">
<mask id="mask3_0_1" style="mask-type:luminance" maskUnits="userSpaceOnUse" x="350" y="177" width="270" height="27">
<path d="M619.672 177.444H350.089V203.629H619.672V177.444Z" fill="white"/>
</mask>
<g mask="url(#mask3_0_1)">
<path d="M619.672 177.444H461.672L460.411 178.285L431.448 197.617L402.485 178.285L401.225 177.444H350.089V182.444H399.708L431.447 203.629L463.186 182.444H619.672V177.444Z" fill="white"/>
</g>
</g>
<path d="M619.672 102.3H463.186L431.447 123.485L399.659 102.3H350.089V177.453H399.631L431.449 198.642L462.874 177.453H619.674L619.672 102.3Z" fill="#197D7B"/>
<g style="mix-blend-mode:multiply" opacity="0.1">
<mask id="mask4_0_1" style="mask-type:luminance" maskUnits="userSpaceOnUse" x="350" y="102" width="50" height="226">
<path d="M399.659 102.303H350.089V327.435H399.659V102.303Z" fill="white"/>
</mask>
<g mask="url(#mask4_0_1)">
<path d="M399.659 102.303H350.089V327.435H399.659V102.303Z" fill="black"/>
</g>
</g>
<g style="mix-blend-mode:multiply" opacity="0.1">
<mask id="mask5_0_1" style="mask-type:luminance" maskUnits="userSpaceOnUse" x="431" y="102" width="33" height="227">
<path d="M463.186 102.303H431.333V328.166H463.186V102.303Z" fill="white"/>
</mask>
<g mask="url(#mask5_0_1)">
<path d="M462.247 328.166H431.333L431.447 123.488L463.186 102.3L462.247 328.166Z" fill="black"/>
</g>
</g>
<path d="M374.308 133.7L369.227 138.1L366.234 134.6L374.496 127.736L379.471 127.775L379.271 152.931L374.155 152.891L374.308 133.7Z" fill="white"/>
<path d="M473.294 138.5V125.929H481.63V128.359H476.03V130.934H480.8V133.347H476.03V138.5H473.294Z" fill="white"/>
<path d="M483.14 138.5V129.047H485.8V131.1H485.89C485.968 130.52 486.258 129.99 486.703 129.611C487.149 129.232 487.718 129.031 488.303 129.047H488.771V131.532H488.105C486.556 131.532 485.805 131.874 485.805 132.973V138.5H483.14Z" fill="white"/>
<path d="M489.727 133.76C489.727 130.771 491.311 128.827 494.156 128.827C497.289 128.827 498.549 131.095 498.549 133.652V134.445H492.482V134.588C492.453 134.867 492.487 135.149 492.582 135.413C492.677 135.677 492.831 135.916 493.032 136.112C493.233 136.308 493.476 136.456 493.742 136.545C494.009 136.633 494.292 136.66 494.57 136.624C495.017 136.62 495.458 136.516 495.86 136.32C496.262 136.123 496.615 135.839 496.893 135.489L498.225 137.145C497.716 137.675 497.099 138.09 496.415 138.36C495.732 138.63 494.998 138.75 494.264 138.712C491.364 138.712 489.727 136.785 489.727 133.76ZM492.482 132.734V132.878H495.8V132.716C495.8 131.564 495.278 130.79 494.216 130.79C493.97 130.788 493.726 130.839 493.5 130.939C493.275 131.038 493.074 131.185 492.91 131.37C492.747 131.554 492.624 131.771 492.551 132.006C492.478 132.241 492.456 132.49 492.487 132.734" fill="white"/>
<path d="M499.844 133.76C499.844 130.771 501.428 128.827 504.273 128.827C507.407 128.827 508.666 131.095 508.666 133.652V134.445H502.6V134.588C502.571 134.867 502.605 135.149 502.7 135.413C502.795 135.677 502.949 135.916 503.15 136.112C503.351 136.308 503.594 136.456 503.86 136.545C504.127 136.633 504.41 136.66 504.688 136.624C505.135 136.62 505.576 136.516 505.978 136.32C506.38 136.123 506.733 135.839 507.011 135.489L508.343 137.145C507.834 137.675 507.217 138.09 506.533 138.36C505.85 138.63 505.116 138.75 504.382 138.712C501.482 138.712 499.845 136.785 499.845 133.76M502.6 132.734V132.878H505.913V132.716C505.913 131.564 505.39 130.79 504.329 130.79C504.083 130.788 503.839 130.839 503.613 130.939C503.388 131.038 503.187 131.185 503.023 131.37C502.86 131.554 502.737 131.771 502.664 132.006C502.591 132.241 502.569 132.49 502.6 132.734Z" fill="white"/>
<path d="M472.808 151.428C472.808 147.179 474.987 144.838 478.371 144.838C479.368 144.761 480.363 145.006 481.209 145.538C482.055 146.07 482.708 146.86 483.071 147.791L480.712 149.016C480.598 148.492 480.298 148.026 479.868 147.705C479.438 147.384 478.906 147.229 478.371 147.269C476.771 147.269 475.706 148.35 475.706 150.33V152.347C475.706 154.327 476.769 155.407 478.371 155.407C478.935 155.411 479.485 155.231 479.937 154.893C480.388 154.555 480.717 154.078 480.871 153.535L483.104 154.835C482.716 155.76 482.054 156.544 481.207 157.081C480.361 157.619 479.37 157.884 478.368 157.842C474.984 157.842 472.805 155.682 472.805 151.432" fill="white"/>
<path d="M484.273 152.887C484.273 149.844 485.929 147.954 488.702 147.954C491.475 147.954 493.131 149.844 493.131 152.887C493.131 155.93 491.475 157.839 488.702 157.839C485.929 157.839 484.273 155.93 484.273 152.887ZM490.359 153.86V151.933C490.359 150.745 489.747 150.06 488.702 150.06C487.657 150.06 487.046 150.745 487.046 151.933V153.86C487.046 155.047 487.658 155.732 488.702 155.732C489.746 155.732 490.359 155.047 490.359 153.86Z" fill="white"/>
<path d="M495.02 157.622V148.169H497.685V149.769H497.793C497.962 149.214 498.314 148.733 498.791 148.403C499.268 148.073 499.842 147.914 500.421 147.951C502.348 147.951 503.374 149.319 503.374 151.696V157.62H500.708V151.912C500.708 150.706 500.367 150.112 499.395 150.112C498.531 150.112 497.685 150.562 497.685 151.498V157.62L495.02 157.622Z" fill="white"/>
<path d="M504.973 156.146L506.539 154.562C506.843 154.933 507.224 155.233 507.656 155.442C508.087 155.65 508.56 155.761 509.039 155.768C510.084 155.768 510.439 155.426 510.439 154.868C510.439 154.4 510.151 154.168 509.485 154.076L508.458 153.95C506.316 153.679 505.272 152.743 505.272 151.033C505.272 149.214 506.694 147.954 508.944 147.954C509.656 147.895 510.372 147.996 511.04 148.252C511.707 148.507 512.308 148.91 512.798 149.43L511.276 151C510.705 150.404 509.922 150.054 509.097 150.027C508.197 150.027 507.836 150.351 507.836 150.82C507.836 151.32 508.052 151.593 508.827 151.702L509.889 151.846C511.942 152.116 513.004 153.052 513.004 154.691C513.004 156.509 511.383 157.841 508.952 157.841C508.204 157.879 507.457 157.747 506.767 157.454C506.078 157.161 505.464 156.714 504.973 156.149" fill="white"/>
<path d="M520.4 156.038H520.31C520.138 156.594 519.783 157.075 519.302 157.402C518.821 157.729 518.243 157.883 517.663 157.838C515.737 157.838 514.711 156.487 514.711 154.111V148.17H517.375V153.878C517.375 155.03 517.753 155.678 518.725 155.678C518.925 155.701 519.129 155.684 519.322 155.627C519.516 155.571 519.696 155.476 519.853 155.348C520.009 155.22 520.138 155.062 520.232 154.883C520.326 154.705 520.383 154.509 520.4 154.308V148.17H523.065V157.623H520.4V156.038Z" fill="white"/>
<path d="M528.193 157.622C527.838 157.677 527.474 157.648 527.132 157.537C526.79 157.427 526.478 157.239 526.222 156.987C525.965 156.736 525.77 156.428 525.653 156.088C525.536 155.748 525.5 155.385 525.547 155.029V144.3H528.212V155.554H529.4V157.624L528.193 157.622Z" fill="white"/>
<path d="M534.224 157.622C533.848 157.673 533.465 157.638 533.104 157.519C532.744 157.399 532.415 157.199 532.144 156.933C531.873 156.667 531.666 156.343 531.54 155.985C531.413 155.626 531.37 155.244 531.414 154.867V150.24H530.082V148.169H530.748C531.469 148.169 531.685 147.809 531.685 147.161V145.612H534.079V148.169H535.953V150.24H534.079V155.552H535.808V157.622H534.224Z" fill="white"/>
<path d="M544.791 157.622C544.338 157.623 543.9 157.454 543.566 157.147C543.233 156.84 543.027 156.418 542.991 155.966H542.883C542.723 156.559 542.355 157.075 541.846 157.419C541.336 157.763 540.72 157.912 540.11 157.838C539.729 157.883 539.343 157.843 538.979 157.723C538.615 157.603 538.282 157.405 538.002 157.143C537.723 156.88 537.504 156.56 537.361 156.204C537.218 155.848 537.155 155.466 537.175 155.083C537.175 153.083 538.723 152.131 541.226 152.131H542.721V151.531C542.721 150.613 542.271 150.037 541.155 150.037C540.748 150.029 540.346 150.128 539.988 150.324C539.631 150.52 539.332 150.806 539.119 151.153L537.535 149.753C537.95 149.137 538.524 148.644 539.196 148.327C539.867 148.01 540.613 147.881 541.352 147.953C544.017 147.953 545.385 149.178 545.385 151.41V155.552H546.268V157.622H544.791ZM542.721 154.759V153.643H541.421C540.395 153.643 539.855 154.022 539.855 154.705V154.976C539.855 155.659 540.305 155.984 541.097 155.984C541.98 155.984 542.718 155.623 542.718 154.759" fill="white"/>
<path d="M551.253 157.622C550.877 157.674 550.493 157.638 550.133 157.519C549.772 157.4 549.444 157.199 549.173 156.933C548.901 156.667 548.695 156.343 548.568 155.985C548.442 155.627 548.399 155.244 548.443 154.867V150.24H547.111V148.169H547.777C548.498 148.169 548.714 147.809 548.714 147.161V145.612H551.108V148.169H552.982V150.24H551.108V155.552H552.837V157.622H551.253Z" fill="white"/>
<path d="M554.616 145.847V145.447C554.616 144.691 555.084 144.132 556.165 144.132C557.246 144.132 557.713 144.691 557.713 145.447V145.847C557.713 146.603 557.245 147.162 556.165 147.162C555.085 147.162 554.616 146.603 554.616 145.847ZM554.832 148.169H557.5V157.622H554.835L554.832 148.169Z" fill="white"/>
<path d="M559.387 152.887C559.387 149.844 561.043 147.954 563.816 147.954C566.589 147.954 568.245 149.844 568.245 152.887C568.245 155.93 566.589 157.839 563.816 157.839C561.043 157.839 559.387 155.93 559.387 152.887ZM565.473 153.86V151.933C565.473 150.745 564.861 150.06 563.816 150.06C562.771 150.06 562.16 150.745 562.16 151.933V153.86C562.16 155.047 562.772 155.732 563.816 155.732C564.86 155.732 565.473 155.047 565.473 153.86Z" fill="white"/>
<path d="M570.133 157.622V148.169H572.8V149.769H572.908C573.078 149.214 573.429 148.733 573.906 148.403C574.383 148.074 574.957 147.914 575.536 147.951C577.463 147.951 578.489 149.319 578.489 151.696V157.62H575.824V151.912C575.824 150.706 575.483 150.112 574.51 150.112C573.647 150.112 572.8 150.562 572.8 151.498V157.62L570.133 157.622Z" fill="white"/>
<path d="M431.334 169.943C442.043 169.943 450.724 161.262 450.724 150.553C450.724 139.844 442.043 131.163 431.334 131.163C420.625 131.163 411.944 139.844 411.944 150.553C411.944 161.262 420.625 169.943 431.334 169.943Z" stroke="#8FD7D4" stroke-width="0.878" stroke-linecap="round" stroke-linejoin="round"/>
<path d="M484.709 0L338.931 97.3H401.224L402.484 98.141L431.447 117.473L460.41 98.144L461.671 97.303H630.487L484.709 0Z" fill="#EE3E33"/>
<g style="mix-blend-mode:multiply" opacity="0.1">
<mask id="mask6_0_1" style="mask-type:luminance" maskUnits="userSpaceOnUse" x="338" y="0" width="293" height="98">
<path d="M630.487 0H338.931V97.303H630.487V0Z" fill="white"/>
</mask>
<g mask="url(#mask6_0_1)">
<path d="M484.709 0L338.931 97.3H346.131L484.709 4.809L623.282 97.3H630.487L484.709 0Z" fill="black"/>
</g>
</g>
<g style="mix-blend-mode:multiply" opacity="0.3">
<mask id="mask7_0_1" style="mask-type:luminance" maskUnits="userSpaceOnUse" x="458" y="29" width="58" height="60">
<path d="M515.336 29.251H458.424V88.226H515.336V29.251Z" fill="white"/>
</mask>
<g mask="url(#mask7_0_1)">
<path d="M508.889 29.251H458.424V88.227H508.889V29.251Z" fill="black"/>
<path d="M477.621 34.792H465.154V82.883H477.621V34.792Z" fill="white"/>
<path d="M502.754 34.792H490.484V82.684H502.754V34.792Z" fill="white"/>
<path d="M483.756 47.854L461.8 61.113H505.933L483.756 47.854Z" fill="white"/>
<path d="M507.84 61.639H459.911L483.755 47.239L507.84 61.639ZM463.692 60.586H504.027L483.757 48.468L463.692 60.586Z" fill="black"/>
<path d="M486.785 73.009C487.187 73.009 487.581 72.8897 487.915 72.6662C488.25 72.4427 488.51 72.1251 488.664 71.7534C488.818 71.3817 488.858 70.9728 488.78 70.5782C488.701 70.1836 488.508 69.8212 488.223 69.5368C487.939 69.2523 487.576 69.0586 487.182 68.9801C486.787 68.9016 486.378 68.9419 486.007 69.0958C485.635 69.2498 485.317 69.5105 485.094 69.845C484.87 70.1795 484.751 70.5727 484.751 70.975C484.751 71.5145 484.965 72.0318 485.347 72.4133C485.728 72.7947 486.246 73.009 486.785 73.009Z" fill="white"/>
<path d="M513.47 85.054C513.299 84.9809 513.113 84.949 512.928 84.961H512.545V85.87H512.95C513.095 85.8768 513.239 85.8578 513.377 85.814C513.447 85.7821 513.507 85.7328 513.553 85.6709C513.598 85.6089 513.627 85.5363 513.636 85.4601C513.646 85.3838 513.635 85.3064 513.606 85.2353C513.577 85.1642 513.53 85.1018 513.47 85.054ZM512.988 84.646C513.223 84.6346 513.457 84.6654 513.681 84.737C513.807 84.7871 513.914 84.8767 513.985 84.9924C514.056 85.1081 514.088 85.2437 514.076 85.379C514.082 85.4769 514.063 85.5748 514.019 85.6627C513.975 85.7505 513.909 85.8252 513.827 85.879C513.714 85.9449 513.589 85.9868 513.459 86.002C513.545 86.0104 513.627 86.0369 513.702 86.0796C513.777 86.1224 513.841 86.1804 513.892 86.25C513.977 86.3627 514.025 86.499 514.029 86.64V86.825C514.029 86.884 514.029 86.947 514.036 87.013C514.036 87.0577 514.044 87.1021 514.059 87.144L514.076 87.176H513.652L513.646 87.152L513.639 87.123L513.63 87.041V86.841C513.645 86.7324 513.631 86.6216 513.589 86.5202C513.548 86.4188 513.479 86.3303 513.392 86.264C513.234 86.1976 513.063 86.1698 512.892 86.183H512.541V87.175H512.1V84.646H512.988ZM511.631 84.523C511.443 84.7041 511.295 84.9218 511.195 85.1627C511.096 85.4035 511.046 85.6623 511.051 85.923C511.051 86.4496 511.26 86.9546 511.633 87.327C512.005 87.6993 512.51 87.9085 513.037 87.9085C513.563 87.9085 514.068 87.6993 514.44 87.327C514.813 86.9546 515.022 86.4496 515.022 85.923C515.021 85.5304 514.904 85.1469 514.686 84.8208C514.467 84.4947 514.157 84.2407 513.794 84.0909C513.431 83.9411 513.032 83.9022 512.647 83.9791C512.262 84.056 511.908 84.2453 511.631 84.523ZM514.663 87.55C514.287 87.926 513.792 88.16 513.263 88.2122C512.733 88.2644 512.202 88.1315 511.76 87.8362C511.318 87.5409 510.991 87.1014 510.837 86.5926C510.682 86.0837 510.708 85.537 510.911 85.0454C511.114 84.5538 511.481 84.1477 511.95 83.8964C512.419 83.645 512.96 83.5639 513.482 83.6668C514.004 83.7696 514.474 84.0502 514.812 84.4607C515.15 84.8711 515.336 85.3861 515.337 85.918C515.342 86.2217 515.285 86.5232 515.169 86.8039C515.053 87.0846 514.881 87.3385 514.663 87.55Z" fill="black"/>
</g>
</g>
<path d="M371.718 287.843L373.459 287.857C373.947 287.86 374.434 287.826 374.917 287.757C375.369 287.696 375.809 287.561 376.217 287.357C376.603 287.165 376.93 286.873 377.165 286.512C377.424 286.079 377.551 285.581 377.532 285.077C377.54 284.714 377.464 284.355 377.309 284.027C377.155 283.698 376.926 283.411 376.641 283.186C376.017 282.676 375.232 282.406 374.426 282.422C373.681 282.389 372.948 282.622 372.36 283.081C371.828 283.501 371.449 284.085 371.281 284.742L365.428 283.488C365.68 282.487 366.121 281.544 366.728 280.709C367.28 279.965 367.973 279.336 368.768 278.86C369.582 278.381 370.467 278.035 371.389 277.833C372.387 277.611 373.407 277.506 374.429 277.519C375.514 277.524 376.594 277.67 377.641 277.952C378.619 278.208 379.538 278.65 380.35 279.252C381.124 279.836 381.756 280.588 382.197 281.452C382.674 282.426 382.903 283.502 382.866 284.585C382.891 285.869 382.495 287.127 381.737 288.164C380.946 289.181 379.796 289.858 378.523 290.057V290.164C379.231 290.249 379.913 290.484 380.523 290.855C381.088 291.204 381.584 291.653 381.987 292.181C382.391 292.718 382.699 293.322 382.897 293.965C383.106 294.645 383.207 295.354 383.197 296.065C383.214 297.21 382.955 298.341 382.443 299.365C381.97 300.286 381.295 301.088 380.47 301.713C379.605 302.355 378.624 302.824 377.581 303.094C376.44 303.398 375.262 303.544 374.081 303.528C372.032 303.569 370.016 303.009 368.281 301.919C367.448 301.345 366.737 300.61 366.192 299.757C365.647 298.904 365.277 297.951 365.105 296.954L370.729 295.684C370.866 296.502 371.265 297.254 371.867 297.825C372.595 298.401 373.512 298.686 374.438 298.625C374.907 298.667 375.379 298.61 375.824 298.457C376.269 298.305 376.676 298.059 377.02 297.738C377.594 297.104 377.9 296.273 377.873 295.418C377.914 294.834 377.763 294.253 377.443 293.763C377.149 293.368 376.751 293.063 376.294 292.882C375.783 292.68 375.243 292.562 374.694 292.532C374.102 292.492 373.51 292.47 372.919 292.465L371.675 292.455L371.718 287.843Z" fill="white"/>
<path d="M365.708 222.311L375.549 213.611C376.078 213.134 376.578 212.628 377.049 212.094C377.542 211.552 377.814 210.845 377.81 210.112C377.83 209.728 377.758 209.345 377.6 208.994C377.442 208.644 377.203 208.336 376.902 208.097C376.289 207.606 375.525 207.343 374.74 207.351C374.309 207.323 373.877 207.389 373.474 207.544C373.07 207.7 372.706 207.941 372.405 208.251C371.838 208.877 371.5 209.676 371.446 210.519L366.119 210.085C366.168 208.911 366.456 207.759 366.964 206.699C367.418 205.776 368.066 204.963 368.864 204.315C369.683 203.665 370.623 203.183 371.629 202.898C372.744 202.578 373.901 202.425 375.061 202.445C376.147 202.443 377.227 202.612 378.261 202.945C379.209 203.248 380.087 203.739 380.843 204.387C381.583 205.039 382.165 205.852 382.543 206.763C382.969 207.813 383.174 208.939 383.143 210.072C383.146 210.808 383.057 211.541 382.878 212.255C382.719 212.873 382.481 213.469 382.17 214.026C381.873 214.553 381.517 215.045 381.11 215.492C380.693 215.949 380.251 216.383 379.786 216.792L372.095 223.306L383.252 223.394L383.215 228.084L365.662 227.945L365.708 222.311Z" fill="white"/>
<path d="M445.759 224.861L441.867 227.527L437.309 221.277" stroke="#FFDD05" stroke-width="0.808" stroke-linecap="round" stroke-linejoin="round"/>
<path d="M437.309 221.277L432.772 220.521C432.347 220.45 431.91 220.521 431.528 220.721L428.912 222.089C428.67 222.216 428.457 222.391 428.286 222.604C428.115 222.816 427.989 223.062 427.918 223.326C427.918 223.326 427.803 224.214 427.669 225.226C427.535 226.238 427.801 226.485 428.635 226.671C429.517 226.871 430.42 226.313 430.958 224.571L431.058 224.237C432.278 224.578 433.549 224.703 434.812 224.607" stroke="#FFDD05" stroke-width="0.808" stroke-linecap="round" stroke-linejoin="round"/>
<path d="M441.867 227.527L439.338 229.079" stroke="#FFDD05" stroke-width="0.808" stroke-linecap="round" stroke-linejoin="round"/>
<path d="M423.767 228.817L423.367 229.305C423.272 229.414 423.2 229.541 423.155 229.678C423.11 229.815 423.093 229.96 423.104 230.104C423.116 230.248 423.156 230.388 423.223 230.516C423.29 230.644 423.381 230.758 423.493 230.85C423.604 230.942 423.732 231.011 423.871 231.053C424.009 231.095 424.154 231.108 424.298 231.093C424.441 231.078 424.58 231.034 424.707 230.964C424.833 230.895 424.945 230.8 425.034 230.687L425.434 230.199C425.529 230.09 425.601 229.963 425.646 229.826C425.691 229.689 425.708 229.544 425.697 229.4C425.685 229.256 425.645 229.116 425.578 228.988C425.511 228.86 425.42 228.746 425.308 228.654C425.197 228.562 425.069 228.493 424.93 228.451C424.792 228.409 424.647 228.396 424.503 228.411C424.36 228.426 424.221 228.47 424.094 228.54C423.968 228.609 423.856 228.704 423.767 228.817Z" stroke="#FFDD05" stroke-width="0.808" stroke-linecap="round" stroke-linejoin="round"/>
<path d="M425.726 229.847L425.05 230.662C424.959 230.771 424.891 230.898 424.849 231.034C424.807 231.169 424.792 231.312 424.805 231.454C424.832 231.74 424.971 232.004 425.192 232.187C425.413 232.37 425.698 232.458 425.984 232.432C426.27 232.405 426.534 232.266 426.717 232.045L427.393 231.229C427.488 231.12 427.56 230.993 427.605 230.856C427.65 230.719 427.667 230.574 427.656 230.43C427.644 230.286 427.604 230.146 427.537 230.018C427.47 229.89 427.379 229.776 427.267 229.684C427.156 229.592 427.028 229.523 426.889 229.481C426.751 229.439 426.606 229.426 426.462 229.441C426.319 229.456 426.18 229.5 426.053 229.57C425.927 229.639 425.815 229.734 425.726 229.847Z" stroke="#FFDD05" stroke-width="0.808" stroke-linecap="round" stroke-linejoin="round"/>
<path d="M427.413 231.206L426.737 232.022C426.633 232.129 426.553 232.257 426.501 232.397C426.449 232.536 426.426 232.685 426.435 232.834C426.443 232.983 426.482 233.129 426.549 233.262C426.616 233.395 426.71 233.513 426.825 233.608C426.94 233.703 427.073 233.774 427.216 233.815C427.36 233.856 427.51 233.868 427.658 233.848C427.806 233.828 427.948 233.779 428.076 233.701C428.203 233.624 428.314 233.522 428.4 233.4L429.076 232.584C429.171 232.475 429.243 232.348 429.288 232.211C429.333 232.074 429.35 231.929 429.339 231.785C429.327 231.641 429.287 231.501 429.22 231.373C429.153 231.245 429.062 231.131 428.95 231.039C428.839 230.947 428.711 230.878 428.572 230.836C428.434 230.794 428.289 230.781 428.145 230.796C428.002 230.811 427.863 230.855 427.736 230.925C427.61 230.994 427.498 231.089 427.409 231.202L427.413 231.206Z" stroke="#FFDD05" stroke-width="0.808" stroke-linecap="round" stroke-linejoin="round"/>
<path d="M429.192 232.453L428.55 233.227C428.459 233.336 428.391 233.463 428.349 233.599C428.307 233.734 428.292 233.877 428.305 234.019C428.332 234.305 428.471 234.569 428.692 234.752C428.913 234.935 429.198 235.023 429.484 234.997C429.77 234.97 430.034 234.831 430.217 234.61L430.859 233.835C430.954 233.726 431.026 233.599 431.071 233.462C431.116 233.325 431.133 233.18 431.122 233.036C431.11 232.892 431.07 232.752 431.003 232.624C430.936 232.496 430.845 232.382 430.733 232.29C430.622 232.198 430.494 232.129 430.355 232.087C430.217 232.045 430.072 232.032 429.928 232.047C429.785 232.062 429.646 232.106 429.519 232.176C429.393 232.245 429.281 232.34 429.192 232.453Z" stroke="#FFDD05" stroke-width="0.808" stroke-linecap="round" stroke-linejoin="round"/>
<path d="M429.795 221.598L425.413 221.184" stroke="#FFDD05" stroke-width="0.808" stroke-linecap="round" stroke-linejoin="round"/>
<path d="M416.908 224.633L420.758 227.36L425.413 221.183L418.663 216.401" stroke="#FFDD05" stroke-width="0.808" stroke-linecap="round" stroke-linejoin="round"/>
<path d="M431.26 233.491L431.934 234.102C432.15 234.292 432.432 234.388 432.718 234.369C433.005 234.351 433.272 234.219 433.461 234.003C433.651 233.788 433.747 233.506 433.729 233.219C433.71 232.933 433.579 232.665 433.363 232.476L432.135 231.397" stroke="#FFDD05" stroke-width="0.808" stroke-linecap="round" stroke-linejoin="round"/>
<path d="M432.136 231.4L433.847 232.9C433.953 232.998 434.078 233.073 434.214 233.122C434.349 233.171 434.494 233.192 434.638 233.184C434.782 233.176 434.923 233.14 435.053 233.077C435.182 233.014 435.298 232.926 435.394 232.817C435.489 232.709 435.561 232.583 435.607 232.446C435.653 232.309 435.671 232.164 435.66 232.02C435.649 231.877 435.609 231.736 435.543 231.608C435.477 231.48 435.387 231.366 435.276 231.273L433.524 229.733" stroke="#FFDD05" stroke-width="0.808" stroke-linecap="round" stroke-linejoin="round"/>
<path d="M433.524 229.734L435.963 231.877C436.179 232.066 436.461 232.163 436.747 232.144C437.034 232.126 437.301 231.994 437.491 231.779C437.68 231.563 437.776 231.281 437.758 230.994C437.739 230.708 437.608 230.441 437.392 230.251L434.912 228.071" stroke="#FFDD05" stroke-width="0.808" stroke-linecap="round" stroke-linejoin="round"/>
<path d="M434.912 228.071L437.912 230.705C438.128 230.895 438.41 230.991 438.697 230.972C438.983 230.954 439.251 230.822 439.44 230.607C439.63 230.391 439.726 230.109 439.708 229.822C439.689 229.535 439.558 229.268 439.342 229.078L433.803 224.766" stroke="#FFDD05" stroke-width="0.808" stroke-linecap="round" stroke-linejoin="round"/>
<path d="M420.758 227.361L423.558 228.955" stroke="#FFDD05" stroke-width="0.808" stroke-linecap="round" stroke-linejoin="round"/>
<path d="M437.309 221.277L444.448 216.386" stroke="#FFDD05" stroke-width="0.808" stroke-linecap="round" stroke-linejoin="round"/>
<path d="M435.1 149.668H426.108V151.441H427.357V159.292H435.31V151.441H436.559V149.668H435.1Z" stroke="#FFDD05" stroke-width="0.634" stroke-linecap="round" stroke-linejoin="round"/>
<path d="M435.31 158.579L437.324 154.753H440.294C440.665 154.753 441.021 154.606 441.284 154.343C441.546 154.08 441.694 153.724 441.694 153.353L441.53 146.071C441.449 145.7 441.268 145.358 441.008 145.081" stroke="#FFDD05" stroke-width="0.634" stroke-linecap="round" stroke-linejoin="round"/>
<path d="M439.353 145.082C439.353 145.082 438.699 145.765 438.521 145.947L436.862 147.592C436.689 147.749 436.462 147.833 436.229 147.828L435.156 147.928C434.096 147.96 434.01 149.671 435.022 149.671H436.56C436.846 149.671 436.919 149.726 437.138 149.54L438.622 148.552V152.54H436.91C436.689 152.54 436.472 152.599 436.283 152.712C436.093 152.824 435.937 152.986 435.831 153.18L435.311 154.145" stroke="#FFDD05" stroke-width="0.634" stroke-linecap="round" stroke-linejoin="round"/>
<path d="M438.121 154.752H442.744L443.426 147.71" stroke="#FFDD05" stroke-width="0.634" stroke-linecap="round" stroke-linejoin="round"/>
<path d="M440.559 154.867V158.767L437.952 159.289" stroke="#FFDD05" stroke-width="0.634" stroke-linecap="round" stroke-linejoin="round"/>
<path d="M443.166 159.292L440.559 158.769V159.292" stroke="#FFDD05" stroke-width="0.634" stroke-linecap="round" stroke-linejoin="round"/>
<path d="M427.358 158.58L425.342 154.752H422.374C422.003 154.752 421.647 154.605 421.384 154.342C421.122 154.079 420.974 153.723 420.974 153.352L421.139 146.071C421.22 145.7 421.4 145.358 421.66 145.081" stroke="#FFDD05" stroke-width="0.634" stroke-linecap="round" stroke-linejoin="round"/>
<path d="M423.315 145.082C423.315 145.082 423.968 145.765 424.147 145.947L425.806 147.592C425.979 147.749 426.206 147.833 426.439 147.828L427.512 147.928C428.593 147.948 428.657 149.671 427.646 149.671H426.108C425.821 149.671 425.749 149.726 425.53 149.54L424.045 148.552V152.54H425.759C425.98 152.54 426.196 152.599 426.386 152.712C426.576 152.825 426.731 152.986 426.837 153.18L427.358 154.146" stroke="#FFDD05" stroke-width="0.634" stroke-linecap="round" stroke-linejoin="round"/>
<path d="M424.546 154.752H419.923L419.241 147.71" stroke="#FFDD05" stroke-width="0.634" stroke-linecap="round" stroke-linejoin="round"/>
<path d="M422.108 154.867V158.767L424.715 159.289" stroke="#FFDD05" stroke-width="0.634" stroke-linecap="round" stroke-linejoin="round"/>
<path d="M419.5 159.292L422.107 158.769V159.292" stroke="#FFDD05" stroke-width="0.634" stroke-linecap="round" stroke-linejoin="round"/>
<path d="M431.333 145.5C431.006 145.5 430.687 145.403 430.415 145.221C430.143 145.039 429.932 144.781 429.807 144.479C429.682 144.177 429.649 143.845 429.713 143.524C429.777 143.204 429.934 142.909 430.165 142.678C430.396 142.447 430.691 142.29 431.011 142.226C431.332 142.162 431.664 142.195 431.966 142.32C432.268 142.445 432.526 142.656 432.708 142.928C432.89 143.2 432.987 143.519 432.987 143.846C432.986 144.284 432.812 144.705 432.502 145.015C432.192 145.325 431.772 145.499 431.333 145.5Z" stroke="#FFDD05" stroke-width="0.634" stroke-linecap="round" stroke-linejoin="round"/>
<path d="M432.244 145.343L433.875 145.709C434.628 145.871 435.195 146.627 435.31 147.909" stroke="#FFDD05" stroke-width="0.634" stroke-linecap="round" stroke-linejoin="round"/>
<path d="M430.423 145.343L428.792 145.709C428.039 145.871 427.472 146.627 427.357 147.909" stroke="#FFDD05" stroke-width="0.634" stroke-linecap="round" stroke-linejoin="round"/>
<path d="M424.329 143.515C424.329 143.851 424.229 144.18 424.043 144.459C423.856 144.739 423.59 144.957 423.28 145.086C422.969 145.214 422.627 145.248 422.297 145.182C421.968 145.117 421.665 144.955 421.427 144.717C421.189 144.479 421.027 144.176 420.962 143.847C420.896 143.517 420.93 143.175 421.058 142.864C421.187 142.554 421.405 142.288 421.685 142.102C421.964 141.915 422.293 141.815 422.629 141.815C423.08 141.815 423.512 141.994 423.831 142.313C424.15 142.632 424.329 143.064 424.329 143.515Z" stroke="#FFDD05" stroke-width="0.634" stroke-linecap="round" stroke-linejoin="round"/>
<path d="M438.338 143.515C438.338 143.851 438.438 144.18 438.625 144.459C438.811 144.739 439.077 144.957 439.387 145.086C439.698 145.214 440.04 145.248 440.37 145.182C440.699 145.117 441.002 144.955 441.24 144.717C441.478 144.479 441.64 144.176 441.705 143.847C441.771 143.517 441.737 143.175 441.609 142.864C441.48 142.554 441.262 142.288 440.982 142.102C440.703 141.915 440.374 141.815 440.038 141.815C439.587 141.815 439.155 141.994 438.836 142.313C438.517 142.632 438.338 143.064 438.338 143.515Z" stroke="#FFDD05" stroke-width="0.634" stroke-linecap="round" stroke-linejoin="round"/>
</g>
</g>
<rect x="31" y="109" width="284" height="42" fill="#F8F9FA"/>
<path d="M44.2 123.64L42.04 123.38V122.14H48.28L50.66 130.74L51.22 133.08L51.7 130.74L54.06 122.14H60.24V123.38L58.06 123.64L59.66 135.58L61.28 135.8V137H54.9V135.8L56.66 135.6L55.78 126.84L55.4 123.18L54.66 126.26L51.76 136.38H49.64L46.68 126.78L45.66 123.18L45.36 126.84L44.6 135.6L46.62 135.8V137H41.06V135.8L42.74 135.6L44.2 123.64ZM64.612 124.06C64.132 124.06 63.752 123.92 63.472 123.64C63.192 123.36 63.052 123 63.052 122.56C63.052 122.053 63.212 121.633 63.532 121.3C63.852 120.967 64.2787 120.8 64.812 120.8C65.3454 120.8 65.752 120.947 66.032 121.24C66.312 121.52 66.452 121.873 66.452 122.3C66.452 122.833 66.292 123.26 65.972 123.58C65.652 123.9 65.2054 124.06 64.632 124.06H64.612ZM63.552 127.78L62.132 127.4V126.06L65.792 125.62H65.832L66.392 126.02V135.64L67.732 135.8V137H62.152V135.8L63.552 135.62V127.78ZM68.9056 131.5C68.9056 130.353 69.1323 129.333 69.5856 128.44C70.0523 127.547 70.7123 126.853 71.5656 126.36C72.4323 125.853 73.439 125.6 74.5856 125.6C75.119 125.6 75.579 125.64 75.9656 125.72C76.3523 125.8 76.7856 125.907 77.2656 126.04L77.8456 126.2L77.7256 129.62H75.9856L75.4856 127.42C75.4056 127.073 75.0123 126.9 74.3056 126.9C73.559 126.9 72.9723 127.227 72.5456 127.88C72.1323 128.533 71.919 129.553 71.9056 130.94C71.9056 132.407 72.159 133.533 72.6656 134.32C73.1723 135.093 73.8456 135.48 74.6856 135.48C75.699 135.48 76.6323 135.207 77.4856 134.66L77.9456 135.7C77.599 136.073 77.0656 136.42 76.3456 136.74C75.639 137.06 74.8723 137.22 74.0456 137.22C72.339 137.22 71.0523 136.693 70.1856 135.64C69.3323 134.587 68.9056 133.207 68.9056 131.5ZM80.4767 122.38L78.9567 122.12V121.04L82.6767 120.6H82.7367L83.2567 120.98L83.2767 125.44L83.1367 127.18C83.5501 126.807 84.1101 126.46 84.8167 126.14C85.5367 125.82 86.2901 125.66 87.0767 125.66C87.9167 125.66 88.5701 125.82 89.0367 126.14C89.5034 126.447 89.8301 126.92 90.0167 127.56C90.2034 128.2 90.2967 129.053 90.2967 130.12V135.62L91.5767 135.8V137H86.3167V135.8L87.4767 135.62V130.12C87.4767 129.427 87.4301 128.887 87.3367 128.5C87.2434 128.113 87.0701 127.827 86.8167 127.64C86.5767 127.453 86.2167 127.36 85.7367 127.36C85.3234 127.36 84.8967 127.46 84.4567 127.66C84.0301 127.847 83.6501 128.073 83.3167 128.34V135.62L84.5367 135.8V137H79.3567V135.8L80.4767 135.64V122.38ZM92.7152 133.88C92.7152 132.667 93.3218 131.753 94.5352 131.14C95.7618 130.527 97.3418 130.213 99.2752 130.2V129.74C99.2752 129.193 99.2152 128.767 99.0952 128.46C98.9885 128.153 98.7818 127.927 98.4752 127.78C98.1818 127.62 97.7485 127.54 97.1752 127.54C96.5218 127.54 95.9352 127.627 95.4152 127.8C94.8952 127.96 94.3552 128.173 93.7952 128.44L93.1752 127.16C93.3752 126.987 93.7085 126.78 94.1752 126.54C94.6552 126.3 95.2218 126.093 95.8752 125.92C96.5285 125.733 97.2018 125.64 97.8952 125.64C98.9218 125.64 99.7218 125.773 100.295 126.04C100.882 126.307 101.302 126.733 101.555 127.32C101.808 127.907 101.935 128.693 101.935 129.68V135.8H103.015V136.92C102.748 136.987 102.368 137.053 101.875 137.12C101.382 137.187 100.948 137.22 100.575 137.22C100.122 137.22 99.8152 137.153 99.6552 137.02C99.5085 136.887 99.4352 136.613 99.4352 136.2V135.66C99.0752 136.06 98.6085 136.42 98.0352 136.74C97.4618 137.06 96.8152 137.22 96.0952 137.22C95.4818 137.22 94.9152 137.093 94.3952 136.84C93.8885 136.573 93.4818 136.193 93.1752 135.7C92.8685 135.193 92.7152 134.587 92.7152 133.88ZM97.3752 135.56C97.6552 135.56 97.9752 135.48 98.3352 135.32C98.6952 135.147 99.0085 134.94 99.2752 134.7V131.42C98.0752 131.42 97.1752 131.627 96.5752 132.04C95.9885 132.44 95.6952 132.96 95.6952 133.6C95.6952 134.24 95.8418 134.727 96.1352 135.06C96.4418 135.393 96.8552 135.56 97.3752 135.56ZM109.303 137.22C107.543 137.22 106.23 136.707 105.363 135.68C104.51 134.64 104.083 133.227 104.083 131.44C104.083 130.24 104.303 129.2 104.743 128.32C105.197 127.44 105.83 126.767 106.643 126.3C107.457 125.833 108.397 125.6 109.463 125.6C110.797 125.6 111.823 125.953 112.543 126.66C113.263 127.353 113.637 128.347 113.663 129.64C113.663 130.52 113.61 131.173 113.503 131.6H107.003C107.057 132.813 107.343 133.76 107.863 134.44C108.383 135.107 109.123 135.44 110.083 135.44C110.603 135.44 111.137 135.353 111.683 135.18C112.243 135.007 112.683 134.8 113.003 134.56L113.503 135.66C113.143 136.047 112.557 136.407 111.743 136.74C110.943 137.06 110.13 137.22 109.303 137.22ZM110.863 130.4C110.89 130.027 110.903 129.74 110.903 129.54C110.903 127.767 110.31 126.88 109.123 126.88C108.47 126.88 107.963 127.14 107.603 127.66C107.243 128.18 107.043 129.093 107.003 130.4H110.863ZM116.419 122.38L114.939 122.12V121.04L118.639 120.6H118.679L119.219 120.98V135.64L120.679 135.8V137H115.019V135.8L116.419 135.62V122.38ZM130.162 137.18C129.322 137.18 128.702 136.987 128.302 136.6C127.902 136.213 127.702 135.6 127.702 134.76V127.42H126.402V126.38C126.509 126.34 126.702 126.273 126.982 126.18C127.262 126.073 127.476 125.987 127.622 125.92C127.849 125.747 128.042 125.447 128.202 125.02C128.322 124.74 128.542 124.047 128.862 122.94H130.462L130.542 125.88H133.602V127.42H130.562V133.04C130.562 133.787 130.582 134.313 130.622 134.62C130.662 134.927 130.749 135.127 130.882 135.22C131.016 135.3 131.249 135.34 131.582 135.34C131.916 135.34 132.262 135.307 132.622 135.24C132.982 135.16 133.282 135.067 133.522 134.96L133.902 136.08C133.529 136.36 132.982 136.613 132.262 136.84C131.542 137.067 130.842 137.18 130.162 137.18ZM135.906 122.38L134.386 122.12V121.04L138.106 120.6H138.166L138.686 120.98L138.706 125.44L138.566 127.18C138.98 126.807 139.54 126.46 140.246 126.14C140.966 125.82 141.72 125.66 142.506 125.66C143.346 125.66 144 125.82 144.466 126.14C144.933 126.447 145.26 126.92 145.446 127.56C145.633 128.2 145.726 129.053 145.726 130.12V135.62L147.006 135.8V137H141.746V135.8L142.906 135.62V130.12C142.906 129.427 142.86 128.887 142.766 128.5C142.673 128.113 142.5 127.827 142.246 127.64C142.006 127.453 141.646 127.36 141.166 127.36C140.753 127.36 140.326 127.46 139.886 127.66C139.46 127.847 139.08 128.073 138.746 128.34V135.62L139.966 135.8V137H134.786V135.8L135.906 135.64V122.38ZM153.405 137.22C151.645 137.22 150.332 136.707 149.465 135.68C148.612 134.64 148.185 133.227 148.185 131.44C148.185 130.24 148.405 129.2 148.845 128.32C149.298 127.44 149.932 126.767 150.745 126.3C151.558 125.833 152.498 125.6 153.565 125.6C154.898 125.6 155.925 125.953 156.645 126.66C157.365 127.353 157.738 128.347 157.765 129.64C157.765 130.52 157.712 131.173 157.605 131.6H151.105C151.158 132.813 151.445 133.76 151.965 134.44C152.485 135.107 153.225 135.44 154.185 135.44C154.705 135.44 155.238 135.353 155.785 135.18C156.345 135.007 156.785 134.8 157.105 134.56L157.605 135.66C157.245 136.047 156.658 136.407 155.845 136.74C155.045 137.06 154.232 137.22 153.405 137.22ZM154.965 130.4C154.992 130.027 155.005 129.74 155.005 129.54C155.005 127.767 154.412 126.88 153.225 126.88C152.572 126.88 152.065 127.14 151.705 127.66C151.345 128.18 151.145 129.093 151.105 130.4H154.965ZM165.587 123.64L164.107 123.38V122.14H170.187V123.38L168.507 123.64V128.66H174.587V123.64L173.047 123.38V122.14H179.047V123.38L177.527 123.64V135.6L179.047 135.8V137H173.027V135.8L174.587 135.6V130.18H168.507V135.6L170.187 135.8V137H164.067V135.8L165.587 135.6V123.64ZM180.806 131.46C180.806 130.207 181.053 129.14 181.546 128.26C182.053 127.38 182.726 126.72 183.566 126.28C184.406 125.827 185.32 125.6 186.306 125.6C187.986 125.6 189.28 126.12 190.186 127.16C191.106 128.187 191.566 129.587 191.566 131.36C191.566 132.627 191.313 133.707 190.806 134.6C190.313 135.48 189.646 136.14 188.806 136.58C187.98 137.007 187.066 137.22 186.066 137.22C184.4 137.22 183.106 136.707 182.186 135.68C181.266 134.64 180.806 133.233 180.806 131.46ZM186.226 135.92C187.733 135.92 188.486 134.467 188.486 131.56C188.486 130.04 188.306 128.887 187.946 128.1C187.586 127.3 187 126.9 186.186 126.9C184.64 126.9 183.866 128.353 183.866 131.26C183.866 132.78 184.053 133.94 184.426 134.74C184.813 135.527 185.413 135.92 186.226 135.92ZM193.384 135.8L194.504 135.62V127.78L193.224 127.42V126.04L196.544 125.62L196.784 125.78L197.084 126.44V127.28C197.524 126.853 198.151 126.48 198.964 126.16C199.791 125.827 200.504 125.66 201.104 125.66C201.824 125.66 202.404 125.78 202.844 126.02C203.298 126.26 203.638 126.633 203.864 127.14C204.304 126.74 204.884 126.393 205.604 126.1C206.324 125.807 207.031 125.66 207.724 125.66C208.911 125.66 209.751 126.007 210.244 126.7C210.738 127.393 210.984 128.527 210.984 130.1V135.62L212.284 135.8V137H207.104V135.8L208.144 135.62V130.18C208.144 129.14 208.018 128.413 207.764 128C207.524 127.573 207.058 127.36 206.364 127.36C205.991 127.36 205.604 127.447 205.204 127.62C204.818 127.78 204.471 127.98 204.164 128.22C204.258 128.727 204.304 129.36 204.304 130.12V135.62L205.544 135.8V137H200.324V135.8L201.424 135.62V130.12C201.424 129.427 201.378 128.887 201.284 128.5C201.204 128.1 201.044 127.813 200.804 127.64C200.564 127.453 200.218 127.36 199.764 127.36C199.338 127.36 198.911 127.46 198.484 127.66C198.071 127.847 197.698 128.073 197.364 128.34V135.62L198.544 135.8V137H193.384V135.8ZM218.678 137.22C216.918 137.22 215.605 136.707 214.738 135.68C213.885 134.64 213.458 133.227 213.458 131.44C213.458 130.24 213.678 129.2 214.118 128.32C214.572 127.44 215.205 126.767 216.018 126.3C216.832 125.833 217.772 125.6 218.838 125.6C220.172 125.6 221.198 125.953 221.918 126.66C222.638 127.353 223.012 128.347 223.038 129.64C223.038 130.52 222.985 131.173 222.878 131.6H216.378C216.432 132.813 216.718 133.76 217.238 134.44C217.758 135.107 218.498 135.44 219.458 135.44C219.978 135.44 220.512 135.353 221.058 135.18C221.618 135.007 222.058 134.8 222.378 134.56L222.878 135.66C222.518 136.047 221.932 136.407 221.118 136.74C220.318 137.06 219.505 137.22 218.678 137.22ZM220.238 130.4C220.265 130.027 220.278 129.74 220.278 129.54C220.278 127.767 219.685 126.88 218.498 126.88C217.845 126.88 217.338 127.14 216.978 127.66C216.618 128.18 216.418 129.093 216.378 130.4H220.238ZM230.84 123.64L229.28 123.38V122.14H232.26C232.714 122.14 233.3 122.113 234.02 122.06C234.194 122.047 234.4 122.033 234.64 122.02C234.88 122.007 235.16 122 235.48 122C237.494 122 238.9 122.287 239.7 122.86C240.514 123.42 240.92 124.26 240.92 125.38C240.92 126.367 240.62 127.193 240.02 127.86C239.434 128.513 238.66 128.913 237.7 129.06C239.02 129.047 240.054 129.347 240.8 129.96C241.56 130.573 241.94 131.427 241.94 132.52C241.94 133.907 241.454 135.02 240.48 135.86C239.507 136.7 237.88 137.12 235.6 137.12C235 137.12 234.447 137.1 233.94 137.06C233.807 137.06 233.58 137.047 233.26 137.02C232.94 137.007 232.614 137 232.28 137H229.26V135.8L230.84 135.6V123.64ZM233.74 128.62C233.887 128.633 234.187 128.64 234.64 128.64H235.58C236.394 128.64 237 128.387 237.4 127.88C237.8 127.373 238 126.66 238 125.74C238 124.86 237.794 124.22 237.38 123.82C236.967 123.42 236.28 123.22 235.32 123.22C235.067 123.22 234.54 123.247 233.74 123.3V128.62ZM233.74 135.68C234.047 135.8 234.634 135.86 235.5 135.86C236.634 135.86 237.454 135.593 237.96 135.06C238.467 134.527 238.72 133.753 238.72 132.74C238.72 131.767 238.487 131.073 238.02 130.66C237.567 130.233 236.84 130.02 235.84 130.02C234.72 130.02 234.02 130.033 233.74 130.06V135.68ZM252.502 137.2C252.062 137.2 251.742 137.107 251.542 136.92C251.342 136.733 251.242 136.453 251.242 136.08V135.54C250.882 135.98 250.375 136.373 249.722 136.72C249.069 137.053 248.415 137.22 247.762 137.22C246.482 137.22 245.569 136.893 245.022 136.24C244.475 135.573 244.202 134.48 244.202 132.96V127.32L243.202 127.04V125.9L246.602 125.64H246.622L247.022 125.92V132.96C247.022 133.933 247.142 134.613 247.382 135C247.622 135.387 248.069 135.58 248.722 135.58C249.509 135.58 250.242 135.273 250.922 134.66V127.32L249.582 127.02V125.9L253.202 125.64H253.242L253.722 125.92V135.76H254.842L254.822 136.9C254.769 136.913 254.522 136.967 254.082 137.06C253.642 137.153 253.115 137.2 252.502 137.2ZM258.035 141.98C257.795 141.98 257.535 141.96 257.255 141.92C256.989 141.88 256.795 141.833 256.675 141.78V139.64C256.769 139.693 256.955 139.747 257.235 139.8C257.515 139.853 257.769 139.88 257.995 139.88C258.662 139.88 259.209 139.66 259.635 139.22C260.075 138.78 260.482 138.04 260.855 137H259.775L256.015 127.3L255.115 127.04V125.88H260.615V127.04L259.155 127.28L260.935 132.82L261.655 135.18L262.275 132.82L263.915 127.28L262.655 127.04V125.88H266.995V127.04L266.015 127.28C265.282 129.52 264.555 131.68 263.835 133.76C263.115 135.84 262.695 137.007 262.575 137.26C262.149 138.38 261.742 139.273 261.355 139.94C260.969 140.607 260.509 141.113 259.975 141.46C259.442 141.807 258.795 141.98 258.035 141.98ZM272.76 137.22C271 137.22 269.687 136.707 268.82 135.68C267.967 134.64 267.54 133.227 267.54 131.44C267.54 130.24 267.76 129.2 268.2 128.32C268.654 127.44 269.287 126.767 270.1 126.3C270.914 125.833 271.854 125.6 272.92 125.6C274.254 125.6 275.28 125.953 276 126.66C276.72 127.353 277.094 128.347 277.12 129.64C277.12 130.52 277.067 131.173 276.96 131.6H270.46C270.514 132.813 270.8 133.76 271.32 134.44C271.84 135.107 272.58 135.44 273.54 135.44C274.06 135.44 274.594 135.353 275.14 135.18C275.7 135.007 276.14 134.8 276.46 134.56L276.96 135.66C276.6 136.047 276.014 136.407 275.2 136.74C274.4 137.06 273.587 137.22 272.76 137.22ZM274.32 130.4C274.347 130.027 274.36 129.74 274.36 129.54C274.36 127.767 273.767 126.88 272.58 126.88C271.927 126.88 271.42 127.14 271.06 127.66C270.7 128.18 270.5 129.093 270.46 130.4H274.32ZM278.716 135.82L280.036 135.66V127.78L278.756 127.42V126.04L281.856 125.62H281.916L282.416 126.02V126.46L282.356 128.08H282.416C282.51 127.813 282.73 127.487 283.076 127.1C283.423 126.7 283.856 126.353 284.376 126.06C284.91 125.753 285.483 125.6 286.096 125.6C286.39 125.6 286.643 125.64 286.856 125.72V128.72C286.456 128.44 285.97 128.3 285.396 128.3C284.423 128.3 283.576 128.56 282.856 129.08V135.64L285.176 135.82V137H278.716V135.82ZM289.15 127.22C289.15 125.66 289.53 124.233 290.29 122.94C291.05 121.633 292.077 120.607 293.37 119.86C294.677 119.1 296.104 118.72 297.65 118.72C299.197 118.72 300.617 119.1 301.91 119.86C303.204 120.607 304.224 121.633 304.97 122.94C305.73 124.233 306.11 125.66 306.11 127.22C306.11 128.78 305.73 130.213 304.97 131.52C304.224 132.813 303.204 133.84 301.91 134.6C300.617 135.36 299.197 135.74 297.65 135.74C296.104 135.74 294.677 135.36 293.37 134.6C292.077 133.84 291.05 132.813 290.29 131.52C289.53 130.213 289.15 128.78 289.15 127.22ZM290.47 127.22C290.47 128.553 290.784 129.787 291.41 130.92C292.05 132.053 292.917 132.953 294.01 133.62C295.104 134.273 296.317 134.6 297.65 134.6C298.97 134.6 300.177 134.267 301.27 133.6C302.364 132.933 303.224 132.04 303.85 130.92C304.477 129.787 304.79 128.553 304.79 127.22C304.79 125.873 304.477 124.64 303.85 123.52C303.224 122.387 302.364 121.493 301.27 120.84C300.177 120.173 298.97 119.84 297.65 119.84C296.317 119.84 295.097 120.173 293.99 120.84C292.897 121.507 292.037 122.407 291.41 123.54C290.784 124.66 290.47 125.887 290.47 127.22ZM294.53 123.74L293.69 123.52V122.52H295.45C295.77 122.533 296.21 122.527 296.77 122.5C297.17 122.473 297.53 122.46 297.85 122.46C299.077 122.46 299.99 122.687 300.59 123.14C301.19 123.593 301.49 124.207 301.49 124.98C301.49 125.687 301.317 126.293 300.97 126.8C300.624 127.293 300.104 127.613 299.41 127.76C299.877 127.96 300.217 128.213 300.43 128.52C300.644 128.813 300.85 129.213 301.05 129.72C301.21 130.133 301.357 130.44 301.49 130.64C301.637 130.827 301.857 130.927 302.15 130.94V131.92H300.31C299.977 131.92 299.73 131.787 299.57 131.52C299.424 131.253 299.27 130.84 299.11 130.28C298.95 129.693 298.777 129.233 298.59 128.9C298.417 128.567 298.144 128.333 297.77 128.2H296.49V130.82L297.45 131.02V131.92H293.69V131.02L294.53 130.78V123.74ZM296.49 126.98C296.704 127.033 297.15 127.06 297.83 127.06C298.257 127.06 298.61 126.887 298.89 126.54C299.184 126.193 299.33 125.773 299.33 125.28C299.33 124.667 299.19 124.233 298.91 123.98C298.63 123.713 298.19 123.58 297.59 123.58C297.124 123.58 296.757 123.613 296.49 123.68V126.98Z" fill="#999999"/>
<rect x="455" y="29" width="62" height="63" fill="#EE3E33"/>
</g>
<defs>
<clipPath id="clip0_0_1">
<rect width="630.487" height="328.166" fill="white"/>
</clipPath>
</defs>
</svg>
